<?xml version="1.0" encoding="utf-8" standalone="no"?>
<!DOCTYPE svg PUBLIC "-//W3C//DTD SVG 1.1//EN"
  "http://www.w3.org/Graphics/SVG/1.1/DTD/svg11.dtd">
<svg xmlns:xlink="http://www.w3.org/1999/xlink" width="715.505pt" height="312.285pt" viewBox="0 0 715.505 312.285" xmlns="http://www.w3.org/2000/svg" version="1.1">
 <metadata>
  <rdf:RDF xmlns:dc="http://purl.org/dc/elements/1.1/" xmlns:cc="http://creativecommons.org/ns#" xmlns:rdf="http://www.w3.org/1999/02/22-rdf-syntax-ns#">
   <cc:Work>
    <dc:type rdf:resource="http://purl.org/dc/dcmitype/StillImage"/>
    <dc:date>2022-02-14T16:29:52.107163</dc:date>
    <dc:format>image/svg+xml</dc:format>
    <dc:creator>
     <cc:Agent>
      <dc:title>Matplotlib v3.5.1, https://matplotlib.org/</dc:title>
     </cc:Agent>
    </dc:creator>
   </cc:Work>
  </rdf:RDF>
 </metadata>
 <defs>
  <style type="text/css">*{stroke-linejoin: round; stroke-linecap: butt}</style>
 </defs>
 <g id="figure_1">
  <g id="patch_1">
   <path d="M -0 312.285 
L 715.505 312.285 
L 715.505 0 
L -0 0 
z
" style="fill: #ffffff"/>
  </g>
  <g id="axes_1">
   <g id="patch_2">
    <path d="M 59.13 282.6 
L 705.505 282.6 
L 705.505 56.8 
L 59.13 56.8 
z
" style="fill: #ffffff"/>
   </g>
   <g id="patch_3">
    <path d="M 88.510682 282.6 
L 92.19478 282.6 
L 92.19478 142.331413 
L 88.510682 142.331413 
z
" clip-path="url(#pada27038e5)" style="fill: #1f77b4"/>
   </g>
   <g id="patch_4">
    <path d="M 97.720927 282.6 
L 101.405025 282.6 
L 101.405025 128.706528 
L 97.720927 128.706528 
z
" clip-path="url(#pada27038e5)" style="fill: #1f77b4"/>
   </g>
   <g id="patch_5">
    <path d="M 106.931172 282.6 
L 110.61527 282.6 
L 110.61527 119.563168 
L 106.931172 119.563168 
z
" clip-path="url(#pada27038e5)" style="fill: #1f77b4"/>
   </g>
   <g id="patch_6">
    <path d="M 116.141417 282.6 
L 119.825515 282.6 
L 119.825515 106.780564 
L 116.141417 106.780564 
z
" clip-path="url(#pada27038e5)" style="fill: #1f77b4"/>
   </g>
   <g id="patch_7">
    <path d="M 125.351662 282.6 
L 129.03576 282.6 
L 129.03576 135.335331 
L 125.351662 135.335331 
z
" clip-path="url(#pada27038e5)" style="fill: #1f77b4"/>
   </g>
   <g id="patch_8">
    <path d="M 134.561907 282.6 
L 138.246005 282.6 
L 138.246005 121.291396 
L 134.561907 121.291396 
z
" clip-path="url(#pada27038e5)" style="fill: #1f77b4"/>
   </g>
   <g id="patch_9">
    <path d="M 143.772152 282.6 
L 147.45625 282.6 
L 147.45625 114.667202 
L 143.772152 114.667202 
z
" clip-path="url(#pada27038e5)" style="fill: #1f77b4"/>
   </g>
   <g id="patch_10">
    <path d="M 152.982397 282.6 
L 156.666495 282.6 
L 156.666495 101.552123 
L 152.982397 101.552123 
z
" clip-path="url(#pada27038e5)" style="fill: #1f77b4"/>
   </g>
   <g id="patch_11">
    <path d="M 162.192642 282.6 
L 165.876741 282.6 
L 165.876741 137.427438 
L 162.192642 137.427438 
z
" clip-path="url(#pada27038e5)" style="fill: #1f77b4"/>
   </g>
   <g id="patch_12">
    <path d="M 171.402888 282.6 
L 175.086986 282.6 
L 175.086986 123.239508 
L 171.402888 123.239508 
z
" clip-path="url(#pada27038e5)" style="fill: #1f77b4"/>
   </g>
   <g id="patch_13">
    <path d="M 180.613133 282.6 
L 184.297231 282.6 
L 184.297231 115.103711 
L 180.613133 115.103711 
z
" clip-path="url(#pada27038e5)" style="fill: #1f77b4"/>
   </g>
   <g id="patch_14">
    <path d="M 189.823378 282.6 
L 193.507476 282.6 
L 193.507476 101.956388 
L 189.823378 101.956388 
z
" clip-path="url(#pada27038e5)" style="fill: #1f77b4"/>
   </g>
   <g id="patch_15">
    <path d="M 199.033623 282.6 
L 202.717721 282.6 
L 202.717721 130.394185 
L 199.033623 130.394185 
z
" clip-path="url(#pada27038e5)" style="fill: #1f77b4"/>
   </g>
   <g id="patch_16">
    <path d="M 208.243868 282.6 
L 211.927966 282.6 
L 211.927966 115.787013 
L 208.243868 115.787013 
z
" clip-path="url(#pada27038e5)" style="fill: #1f77b4"/>
   </g>
   <g id="patch_17">
    <path d="M 217.454113 282.6 
L 221.138211 282.6 
L 221.138211 110.175098 
L 217.454113 110.175098 
z
" clip-path="url(#pada27038e5)" style="fill: #1f77b4"/>
   </g>
   <g id="patch_18">
    <path d="M 226.664358 282.6 
L 230.348456 282.6 
L 230.348456 96.692838 
L 226.664358 96.692838 
z
" clip-path="url(#pada27038e5)" style="fill: #1f77b4"/>
   </g>
   <g id="patch_19">
    <path d="M 235.874603 282.6 
L 239.558701 282.6 
L 239.558701 129.796917 
L 235.874603 129.796917 
z
" clip-path="url(#pada27038e5)" style="fill: #1f77b4"/>
   </g>
   <g id="patch_20">
    <path d="M 245.084848 282.6 
L 248.768946 282.6 
L 248.768946 114.907692 
L 245.084848 114.907692 
z
" clip-path="url(#pada27038e5)" style="fill: #1f77b4"/>
   </g>
   <g id="patch_21">
    <path d="M 254.295093 282.6 
L 257.979191 282.6 
L 257.979191 104.927373 
L 254.295093 104.927373 
z
" clip-path="url(#pada27038e5)" style="fill: #1f77b4"/>
   </g>
   <g id="patch_22">
    <path d="M 263.505338 282.6 
L 267.189436 282.6 
L 267.189436 90.951526 
L 263.505338 90.951526 
z
" clip-path="url(#pada27038e5)" style="fill: #1f77b4"/>
   </g>
   <g id="patch_23">
    <path d="M 272.715583 282.6 
L 276.399682 282.6 
L 276.399682 122.163696 
L 272.715583 122.163696 
z
" clip-path="url(#pada27038e5)" style="fill: #1f77b4"/>
   </g>
   <g id="patch_24">
    <path d="M 281.925829 282.6 
L 285.609927 282.6 
L 285.609927 106.816065 
L 281.925829 106.816065 
z
" clip-path="url(#pada27038e5)" style="fill: #1f77b4"/>
   </g>
   <g id="patch_25">
    <path d="M 291.136074 282.6 
L 294.820172 282.6 
L 294.820172 99.581787 
L 291.136074 99.581787 
z
" clip-path="url(#pada27038e5)" style="fill: #1f77b4"/>
   </g>
   <g id="patch_26">
    <path d="M 300.346319 282.6 
L 304.030417 282.6 
L 304.030417 85.241893 
L 300.346319 85.241893 
z
" clip-path="url(#pada27038e5)" style="fill: #1f77b4"/>
   </g>
   <g id="patch_27">
    <path d="M 309.556564 282.6 
L 313.240662 282.6 
L 313.240662 124.796117 
L 309.556564 124.796117 
z
" clip-path="url(#pada27038e5)" style="fill: #1f77b4"/>
   </g>
   <g id="patch_28">
    <path d="M 318.766809 282.6 
L 322.450907 282.6 
L 322.450907 109.329592 
L 318.766809 109.329592 
z
" clip-path="url(#pada27038e5)" style="fill: #1f77b4"/>
   </g>
   <g id="patch_29">
    <path d="M 327.977054 282.6 
L 331.661152 282.6 
L 331.661152 100.412884 
L 327.977054 100.412884 
z
" clip-path="url(#pada27038e5)" style="fill: #1f77b4"/>
   </g>
   <g id="patch_30">
    <path d="M 337.187299 282.6 
L 340.871397 282.6 
L 340.871397 86.070347 
L 337.187299 86.070347 
z
" clip-path="url(#pada27038e5)" style="fill: #1f77b4"/>
   </g>
   <g id="patch_31">
    <path d="M 346.397544 282.6 
L 350.081642 282.6 
L 350.081642 117.129767 
L 346.397544 117.129767 
z
" clip-path="url(#pada27038e5)" style="fill: #1f77b4"/>
   </g>
   <g id="patch_32">
    <path d="M 355.607789 282.6 
L 359.291887 282.6 
L 359.291887 101.205664 
L 355.607789 101.205664 
z
" clip-path="url(#pada27038e5)" style="fill: #1f77b4"/>
   </g>
   <g id="patch_33">
    <path d="M 364.818034 282.6 
L 368.502132 282.6 
L 368.502132 95.035902 
L 364.818034 95.035902 
z
" clip-path="url(#pada27038e5)" style="fill: #1f77b4"/>
   </g>
   <g id="patch_34">
    <path d="M 374.028279 282.6 
L 377.712377 282.6 
L 377.712377 80.327463 
L 374.028279 80.327463 
z
" clip-path="url(#pada27038e5)" style="fill: #1f77b4"/>
   </g>
   <g id="patch_35">
    <path d="M 383.238525 282.6 
L 386.922623 282.6 
L 386.922623 140.74059 
L 383.238525 140.74059 
z
" clip-path="url(#pada27038e5)" style="fill: #1f77b4"/>
   </g>
   <g id="patch_36">
    <path d="M 392.44877 282.6 
L 396.132868 282.6 
L 396.132868 126.954426 
L 392.44877 126.954426 
z
" clip-path="url(#pada27038e5)" style="fill: #1f77b4"/>
   </g>
   <g id="patch_37">
    <path d="M 401.659015 282.6 
L 405.343113 282.6 
L 405.343113 117.718593 
L 401.659015 117.718593 
z
" clip-path="url(#pada27038e5)" style="fill: #1f77b4"/>
   </g>
   <g id="patch_38">
    <path d="M 410.86926 282.6 
L 414.553358 282.6 
L 414.553358 104.783392 
L 410.86926 104.783392 
z
" clip-path="url(#pada27038e5)" style="fill: #1f77b4"/>
   </g>
   <g id="patch_39">
    <path d="M 420.079505 282.6 
L 423.763603 282.6 
L 423.763603 133.666328 
L 420.079505 133.666328 
z
" clip-path="url(#pada27038e5)" style="fill: #1f77b4"/>
   </g>
   <g id="patch_40">
    <path d="M 429.28975 282.6 
L 432.973848 282.6 
L 432.973848 119.456034 
L 429.28975 119.456034 
z
" clip-path="url(#pada27038e5)" style="fill: #1f77b4"/>
   </g>
   <g id="patch_41">
    <path d="M 438.499995 282.6 
L 442.184093 282.6 
L 442.184093 112.768439 
L 438.499995 112.768439 
z
" clip-path="url(#pada27038e5)" style="fill: #1f77b4"/>
   </g>
   <g id="patch_42">
    <path d="M 447.71024 282.6 
L 451.394338 282.6 
L 451.394338 99.496991 
L 447.71024 99.496991 
z
" clip-path="url(#pada27038e5)" style="fill: #1f77b4"/>
   </g>
   <g id="patch_43">
    <path d="M 456.920485 282.6 
L 460.604583 282.6 
L 460.604583 135.778293 
L 456.920485 135.778293 
z
" clip-path="url(#pada27038e5)" style="fill: #1f77b4"/>
   </g>
   <g id="patch_44">
    <path d="M 466.13073 282.6 
L 469.814828 282.6 
L 469.814828 121.42214 
L 466.13073 121.42214 
z
" clip-path="url(#pada27038e5)" style="fill: #1f77b4"/>
   </g>
   <g id="patch_45">
    <path d="M 475.340975 282.6 
L 479.025073 282.6 
L 479.025073 113.207605 
L 475.340975 113.207605 
z
" clip-path="url(#pada27038e5)" style="fill: #1f77b4"/>
   </g>
   <g id="patch_46">
    <path d="M 484.55122 282.6 
L 488.235318 282.6 
L 488.235318 99.903093 
L 484.55122 99.903093 
z
" clip-path="url(#pada27038e5)" style="fill: #1f77b4"/>
   </g>
   <g id="patch_47">
    <path d="M 493.761466 282.6 
L 497.445564 282.6 
L 497.445564 128.666631 
L 493.761466 128.666631 
z
" clip-path="url(#pada27038e5)" style="fill: #1f77b4"/>
   </g>
   <g id="patch_48">
    <path d="M 502.971711 282.6 
L 506.655809 282.6 
L 506.655809 113.886187 
L 502.971711 113.886187 
z
" clip-path="url(#pada27038e5)" style="fill: #1f77b4"/>
   </g>
   <g id="patch_49">
    <path d="M 512.181956 282.6 
L 515.866054 282.6 
L 515.866054 108.224487 
L 512.181956 108.224487 
z
" clip-path="url(#pada27038e5)" style="fill: #1f77b4"/>
   </g>
   <g id="patch_50">
    <path d="M 521.392201 282.6 
L 525.076299 282.6 
L 525.076299 94.581244 
L 521.392201 94.581244 
z
" clip-path="url(#pada27038e5)" style="fill: #1f77b4"/>
   </g>
   <g id="patch_51">
    <path d="M 530.602446 282.6 
L 534.286544 282.6 
L 534.286544 127.529792 
L 530.602446 127.529792 
z
" clip-path="url(#pada27038e5)" style="fill: #1f77b4"/>
   </g>
   <g id="patch_52">
    <path d="M 539.812691 282.6 
L 543.496789 282.6 
L 543.496789 112.42211 
L 539.812691 112.42211 
z
" clip-path="url(#pada27038e5)" style="fill: #1f77b4"/>
   </g>
   <g id="patch_53">
    <path d="M 549.022936 282.6 
L 552.707034 282.6 
L 552.707034 102.293714 
L 549.022936 102.293714 
z
" clip-path="url(#pada27038e5)" style="fill: #1f77b4"/>
   </g>
   <g id="patch_54">
    <path d="M 558.233181 282.6 
L 561.917279 282.6 
L 561.917279 88.110021 
L 558.233181 88.110021 
z
" clip-path="url(#pada27038e5)" style="fill: #1f77b4"/>
   </g>
   <g id="patch_55">
    <path d="M 567.443426 282.6 
L 571.127524 282.6 
L 571.127524 119.783128 
L 567.443426 119.783128 
z
" clip-path="url(#pada27038e5)" style="fill: #1f77b4"/>
   </g>
   <g id="patch_56">
    <path d="M 576.653671 282.6 
L 580.337769 282.6 
L 580.337769 104.210567 
L 576.653671 104.210567 
z
" clip-path="url(#pada27038e5)" style="fill: #1f77b4"/>
   </g>
   <g id="patch_57">
    <path d="M 585.863916 282.6 
L 589.548014 282.6 
L 589.548014 96.866962 
L 585.863916 96.866962 
z
" clip-path="url(#pada27038e5)" style="fill: #1f77b4"/>
   </g>
   <g id="patch_58">
    <path d="M 595.074161 282.6 
L 598.758259 282.6 
L 598.758259 82.313897 
L 595.074161 82.313897 
z
" clip-path="url(#pada27038e5)" style="fill: #1f77b4"/>
   </g>
   <g id="patch_59">
    <path d="M 604.284407 282.6 
L 607.968505 282.6 
L 607.968505 122.454573 
L 604.284407 122.454573 
z
" clip-path="url(#pada27038e5)" style="fill: #1f77b4"/>
   </g>
   <g id="patch_60">
    <path d="M 613.494652 282.6 
L 617.17875 282.6 
L 617.17875 106.761073 
L 613.494652 106.761073 
z
" clip-path="url(#pada27038e5)" style="fill: #1f77b4"/>
   </g>
   <g id="patch_61">
    <path d="M 622.704897 282.6 
L 626.388995 282.6 
L 626.388995 97.712743 
L 622.704897 97.712743 
z
" clip-path="url(#pada27038e5)" style="fill: #1f77b4"/>
   </g>
   <g id="patch_62">
    <path d="M 631.915142 282.6 
L 635.59924 282.6 
L 635.59924 83.156908 
L 631.915142 83.156908 
z
" clip-path="url(#pada27038e5)" style="fill: #1f77b4"/>
   </g>
   <g id="patch_63">
    <path d="M 641.125387 282.6 
L 644.809485 282.6 
L 644.809485 114.674518 
L 641.125387 114.674518 
z
" clip-path="url(#pada27038e5)" style="fill: #1f77b4"/>
   </g>
   <g id="patch_64">
    <path d="M 650.335632 282.6 
L 654.01973 282.6 
L 654.01973 98.516993 
L 650.335632 98.516993 
z
" clip-path="url(#pada27038e5)" style="fill: #1f77b4"/>
   </g>
   <g id="patch_65">
    <path d="M 659.545877 282.6 
L 663.229975 282.6 
L 663.229975 92.254337 
L 659.545877 92.254337 
z
" clip-path="url(#pada27038e5)" style="fill: #1f77b4"/>
   </g>
   <g id="patch_66">
    <path d="M 668.756122 282.6 
L 672.44022 282.6 
L 672.44022 77.327273 
L 668.756122 77.327273 
z
" clip-path="url(#pada27038e5)" style="fill: #1f77b4"/>
   </g>
   <g id="patch_67">
    <path d="M 92.19478 282.6 
L 95.878878 282.6 
L 95.878878 113.539241 
L 92.19478 113.539241 
z
" clip-path="url(#pada27038e5)" style="fill: #ff7f0e"/>
   </g>
   <g id="patch_68">
    <path d="M 101.405025 282.6 
L 105.089123 282.6 
L 105.089123 113.907495 
L 101.405025 113.907495 
z
" clip-path="url(#pada27038e5)" style="fill: #ff7f0e"/>
   </g>
   <g id="patch_69">
    <path d="M 110.61527 282.6 
L 114.299368 282.6 
L 114.299368 102.970558 
L 110.61527 102.970558 
z
" clip-path="url(#pada27038e5)" style="fill: #ff7f0e"/>
   </g>
   <g id="patch_70">
    <path d="M 119.825515 282.6 
L 123.509613 282.6 
L 123.509613 103.469919 
L 119.825515 103.469919 
z
" clip-path="url(#pada27038e5)" style="fill: #ff7f0e"/>
   </g>
   <g id="patch_71">
    <path d="M 129.03576 282.6 
L 132.719858 282.6 
L 132.719858 109.217133 
L 129.03576 109.217133 
z
" clip-path="url(#pada27038e5)" style="fill: #ff7f0e"/>
   </g>
   <g id="patch_72">
    <path d="M 138.246005 282.6 
L 141.930103 282.6 
L 141.930103 107.959933 
L 138.246005 107.959933 
z
" clip-path="url(#pada27038e5)" style="fill: #ff7f0e"/>
   </g>
   <g id="patch_73">
    <path d="M 147.45625 282.6 
L 151.140348 282.6 
L 151.140348 98.290951 
L 147.45625 98.290951 
z
" clip-path="url(#pada27038e5)" style="fill: #ff7f0e"/>
   </g>
   <g id="patch_74">
    <path d="M 156.666495 282.6 
L 160.350593 282.6 
L 160.350593 96.315851 
L 156.666495 96.315851 
z
" clip-path="url(#pada27038e5)" style="fill: #ff7f0e"/>
   </g>
   <g id="patch_75">
    <path d="M 165.876741 282.6 
L 169.560839 282.6 
L 169.560839 108.811996 
L 165.876741 108.811996 
z
" clip-path="url(#pada27038e5)" style="fill: #ff7f0e"/>
   </g>
   <g id="patch_76">
    <path d="M 175.086986 282.6 
L 178.771084 282.6 
L 178.771084 108.475217 
L 175.086986 108.475217 
z
" clip-path="url(#pada27038e5)" style="fill: #ff7f0e"/>
   </g>
   <g id="patch_77">
    <path d="M 184.297231 282.6 
L 187.981329 282.6 
L 187.981329 98.771223 
L 184.297231 98.771223 
z
" clip-path="url(#pada27038e5)" style="fill: #ff7f0e"/>
   </g>
   <g id="patch_78">
    <path d="M 193.507476 282.6 
L 197.191574 282.6 
L 197.191574 98.565551 
L 193.507476 98.565551 
z
" clip-path="url(#pada27038e5)" style="fill: #ff7f0e"/>
   </g>
   <g id="patch_79">
    <path d="M 202.717721 282.6 
L 206.401819 282.6 
L 206.401819 104.491412 
L 202.717721 104.491412 
z
" clip-path="url(#pada27038e5)" style="fill: #ff7f0e"/>
   </g>
   <g id="patch_80">
    <path d="M 211.927966 282.6 
L 215.612064 282.6 
L 215.612064 102.467211 
L 211.927966 102.467211 
z
" clip-path="url(#pada27038e5)" style="fill: #ff7f0e"/>
   </g>
   <g id="patch_81">
    <path d="M 221.138211 282.6 
L 224.822309 282.6 
L 224.822309 93.099383 
L 221.138211 93.099383 
z
" clip-path="url(#pada27038e5)" style="fill: #ff7f0e"/>
   </g>
   <g id="patch_82">
    <path d="M 230.348456 282.6 
L 234.032554 282.6 
L 234.032554 90.357283 
L 230.348456 90.357283 
z
" clip-path="url(#pada27038e5)" style="fill: #ff7f0e"/>
   </g>
   <g id="patch_83">
    <path d="M 239.558701 282.6 
L 243.242799 282.6 
L 243.242799 108.12538 
L 239.558701 108.12538 
z
" clip-path="url(#pada27038e5)" style="fill: #ff7f0e"/>
   </g>
   <g id="patch_84">
    <path d="M 248.768946 282.6 
L 252.453044 282.6 
L 252.453044 108.716283 
L 248.768946 108.716283 
z
" clip-path="url(#pada27038e5)" style="fill: #ff7f0e"/>
   </g>
   <g id="patch_85">
    <path d="M 257.979191 282.6 
L 261.663289 282.6 
L 261.663289 97.962534 
L 257.979191 97.962534 
z
" clip-path="url(#pada27038e5)" style="fill: #ff7f0e"/>
   </g>
   <g id="patch_86">
    <path d="M 267.189436 282.6 
L 270.873534 282.6 
L 270.873534 98.239246 
L 267.189436 98.239246 
z
" clip-path="url(#pada27038e5)" style="fill: #ff7f0e"/>
   </g>
   <g id="patch_87">
    <path d="M 276.399682 282.6 
L 280.08378 282.6 
L 280.08378 103.663829 
L 276.399682 103.663829 
z
" clip-path="url(#pada27038e5)" style="fill: #ff7f0e"/>
   </g>
   <g id="patch_88">
    <path d="M 285.609927 282.6 
L 289.294025 282.6 
L 289.294025 102.629278 
L 285.609927 102.629278 
z
" clip-path="url(#pada27038e5)" style="fill: #ff7f0e"/>
   </g>
   <g id="patch_89">
    <path d="M 294.820172 282.6 
L 298.50427 282.6 
L 298.50427 93.023765 
L 294.820172 93.023765 
z
" clip-path="url(#pada27038e5)" style="fill: #ff7f0e"/>
   </g>
   <g id="patch_90">
    <path d="M 304.030417 282.6 
L 307.714515 282.6 
L 307.714515 90.826015 
L 304.030417 90.826015 
z
" clip-path="url(#pada27038e5)" style="fill: #ff7f0e"/>
   </g>
   <g id="patch_91">
    <path d="M 313.240662 282.6 
L 316.92476 282.6 
L 316.92476 103.093722 
L 313.240662 103.093722 
z
" clip-path="url(#pada27038e5)" style="fill: #ff7f0e"/>
   </g>
   <g id="patch_92">
    <path d="M 322.450907 282.6 
L 326.135005 282.6 
L 326.135005 102.979592 
L 322.450907 102.979592 
z
" clip-path="url(#pada27038e5)" style="fill: #ff7f0e"/>
   </g>
   <g id="patch_93">
    <path d="M 331.661152 282.6 
L 335.34525 282.6 
L 335.34525 93.020901 
L 331.661152 93.020901 
z
" clip-path="url(#pada27038e5)" style="fill: #ff7f0e"/>
   </g>
   <g id="patch_94">
    <path d="M 340.871397 282.6 
L 344.555495 282.6 
L 344.555495 92.59258 
L 340.871397 92.59258 
z
" clip-path="url(#pada27038e5)" style="fill: #ff7f0e"/>
   </g>
   <g id="patch_95">
    <path d="M 350.081642 282.6 
L 353.76574 282.6 
L 353.76574 98.73636 
L 350.081642 98.73636 
z
" clip-path="url(#pada27038e5)" style="fill: #ff7f0e"/>
   </g>
   <g id="patch_96">
    <path d="M 359.291887 282.6 
L 362.975985 282.6 
L 362.975985 96.934809 
L 359.291887 96.934809 
z
" clip-path="url(#pada27038e5)" style="fill: #ff7f0e"/>
   </g>
   <g id="patch_97">
    <path d="M 368.502132 282.6 
L 372.18623 282.6 
L 372.18623 86.987235 
L 368.502132 86.987235 
z
" clip-path="url(#pada27038e5)" style="fill: #ff7f0e"/>
   </g>
   <g id="patch_98">
    <path d="M 377.712377 282.6 
L 381.396475 282.6 
L 381.396475 84.022485 
L 377.712377 84.022485 
z
" clip-path="url(#pada27038e5)" style="fill: #ff7f0e"/>
   </g>
   <g id="patch_99">
    <path d="M 386.922623 282.6 
L 390.606721 282.6 
L 390.606721 111.06448 
L 386.922623 111.06448 
z
" clip-path="url(#pada27038e5)" style="fill: #ff7f0e"/>
   </g>
   <g id="patch_100">
    <path d="M 396.132868 282.6 
L 399.816966 282.6 
L 399.816966 110.876913 
L 396.132868 110.876913 
z
" clip-path="url(#pada27038e5)" style="fill: #ff7f0e"/>
   </g>
   <g id="patch_101">
    <path d="M 405.343113 282.6 
L 409.027211 282.6 
L 409.027211 100.417518 
L 405.343113 100.417518 
z
" clip-path="url(#pada27038e5)" style="fill: #ff7f0e"/>
   </g>
   <g id="patch_102">
    <path d="M 414.553358 282.6 
L 418.237456 282.6 
L 418.237456 99.666812 
L 414.553358 99.666812 
z
" clip-path="url(#pada27038e5)" style="fill: #ff7f0e"/>
   </g>
   <g id="patch_103">
    <path d="M 423.763603 282.6 
L 427.447701 282.6 
L 427.447701 106.573546 
L 423.763603 106.573546 
z
" clip-path="url(#pada27038e5)" style="fill: #ff7f0e"/>
   </g>
   <g id="patch_104">
    <path d="M 432.973848 282.6 
L 436.657946 282.6 
L 436.657946 104.760524 
L 432.973848 104.760524 
z
" clip-path="url(#pada27038e5)" style="fill: #ff7f0e"/>
   </g>
   <g id="patch_105">
    <path d="M 442.184093 282.6 
L 445.868191 282.6 
L 445.868191 94.653941 
L 442.184093 94.653941 
z
" clip-path="url(#pada27038e5)" style="fill: #ff7f0e"/>
   </g>
   <g id="patch_106">
    <path d="M 451.394338 282.6 
L 455.078436 282.6 
L 455.078436 91.428772 
L 451.394338 91.428772 
z
" clip-path="url(#pada27038e5)" style="fill: #ff7f0e"/>
   </g>
   <g id="patch_107">
    <path d="M 460.604583 282.6 
L 464.288681 282.6 
L 464.288681 105.548186 
L 460.604583 105.548186 
z
" clip-path="url(#pada27038e5)" style="fill: #ff7f0e"/>
   </g>
   <g id="patch_108">
    <path d="M 469.814828 282.6 
L 473.498926 282.6 
L 473.498926 104.655585 
L 469.814828 104.655585 
z
" clip-path="url(#pada27038e5)" style="fill: #ff7f0e"/>
   </g>
   <g id="patch_109">
    <path d="M 479.025073 282.6 
L 482.709171 282.6 
L 482.709171 95.384461 
L 479.025073 95.384461 
z
" clip-path="url(#pada27038e5)" style="fill: #ff7f0e"/>
   </g>
   <g id="patch_110">
    <path d="M 488.235318 282.6 
L 491.919417 282.6 
L 491.919417 93.928721 
L 488.235318 93.928721 
z
" clip-path="url(#pada27038e5)" style="fill: #ff7f0e"/>
   </g>
   <g id="patch_111">
    <path d="M 497.445564 282.6 
L 501.129662 282.6 
L 501.129662 101.218508 
L 497.445564 101.218508 
z
" clip-path="url(#pada27038e5)" style="fill: #ff7f0e"/>
   </g>
   <g id="patch_112">
    <path d="M 506.655809 282.6 
L 510.339907 282.6 
L 510.339907 98.638486 
L 506.655809 98.638486 
z
" clip-path="url(#pada27038e5)" style="fill: #ff7f0e"/>
   </g>
   <g id="patch_113">
    <path d="M 515.866054 282.6 
L 519.550152 282.6 
L 519.550152 88.468918 
L 515.866054 88.468918 
z
" clip-path="url(#pada27038e5)" style="fill: #ff7f0e"/>
   </g>
   <g id="patch_114">
    <path d="M 525.076299 282.6 
L 528.760397 282.6 
L 528.760397 84.476749 
L 525.076299 84.476749 
z
" clip-path="url(#pada27038e5)" style="fill: #ff7f0e"/>
   </g>
   <g id="patch_115">
    <path d="M 534.286544 282.6 
L 537.970642 282.6 
L 537.970642 105.302546 
L 534.286544 105.302546 
z
" clip-path="url(#pada27038e5)" style="fill: #ff7f0e"/>
   </g>
   <g id="patch_116">
    <path d="M 543.496789 282.6 
L 547.180887 282.6 
L 547.180887 105.337628 
L 543.496789 105.337628 
z
" clip-path="url(#pada27038e5)" style="fill: #ff7f0e"/>
   </g>
   <g id="patch_117">
    <path d="M 552.707034 282.6 
L 556.391132 282.6 
L 556.391132 95.061422 
L 552.707034 95.061422 
z
" clip-path="url(#pada27038e5)" style="fill: #ff7f0e"/>
   </g>
   <g id="patch_118">
    <path d="M 561.917279 282.6 
L 565.601377 282.6 
L 565.601377 94.088065 
L 561.917279 94.088065 
z
" clip-path="url(#pada27038e5)" style="fill: #ff7f0e"/>
   </g>
   <g id="patch_119">
    <path d="M 571.127524 282.6 
L 574.811622 282.6 
L 574.811622 100.67217 
L 571.127524 100.67217 
z
" clip-path="url(#pada27038e5)" style="fill: #ff7f0e"/>
   </g>
   <g id="patch_120">
    <path d="M 580.337769 282.6 
L 584.021867 282.6 
L 584.021867 99.081797 
L 580.337769 99.081797 
z
" clip-path="url(#pada27038e5)" style="fill: #ff7f0e"/>
   </g>
   <g id="patch_121">
    <path d="M 589.548014 282.6 
L 593.232112 282.6 
L 593.232112 89.038682 
L 589.548014 89.038682 
z
" clip-path="url(#pada27038e5)" style="fill: #ff7f0e"/>
   </g>
   <g id="patch_122">
    <path d="M 598.758259 282.6 
L 602.442358 282.6 
L 602.442358 85.590864 
L 598.758259 85.590864 
z
" clip-path="url(#pada27038e5)" style="fill: #ff7f0e"/>
   </g>
   <g id="patch_123">
    <path d="M 607.968505 282.6 
L 611.652603 282.6 
L 611.652603 99.015233 
L 607.968505 99.015233 
z
" clip-path="url(#pada27038e5)" style="fill: #ff7f0e"/>
   </g>
   <g id="patch_124">
    <path d="M 617.17875 282.6 
L 620.862848 282.6 
L 620.862848 98.345282 
L 617.17875 98.345282 
z
" clip-path="url(#pada27038e5)" style="fill: #ff7f0e"/>
   </g>
   <g id="patch_125">
    <path d="M 626.388995 282.6 
L 630.073093 282.6 
L 630.073093 88.819461 
L 626.388995 88.819461 
z
" clip-path="url(#pada27038e5)" style="fill: #ff7f0e"/>
   </g>
   <g id="patch_126">
    <path d="M 635.59924 282.6 
L 639.283338 282.6 
L 639.283338 87.141071 
L 635.59924 87.141071 
z
" clip-path="url(#pada27038e5)" style="fill: #ff7f0e"/>
   </g>
   <g id="patch_127">
    <path d="M 644.809485 282.6 
L 648.493583 282.6 
L 648.493583 94.648778 
L 644.809485 94.648778 
z
" clip-path="url(#pada27038e5)" style="fill: #ff7f0e"/>
   </g>
   <g id="patch_128">
    <path d="M 654.01973 282.6 
L 657.703828 282.6 
L 657.703828 92.291406 
L 654.01973 92.291406 
z
" clip-path="url(#pada27038e5)" style="fill: #ff7f0e"/>
   </g>
   <g id="patch_129">
    <path d="M 663.229975 282.6 
L 666.914073 282.6 
L 666.914073 81.542091 
L 663.229975 81.542091 
z
" clip-path="url(#pada27038e5)" style="fill: #ff7f0e"/>
   </g>
   <g id="patch_130">
    <path d="M 672.44022 282.6 
L 676.124318 282.6 
L 676.124318 77.327273 
L 672.44022 77.327273 
z
" clip-path="url(#pada27038e5)" style="fill: #ff7f0e"/>
   </g>
   <g id="matplotlib.axis_1">
    <g id="xtick_1">
     <g id="line2d_1">
      <defs>
       <path id="m4de1df4077" d="M 0 0 
L 0 3.5 
" style="stroke: #000000; stroke-width: 0.8"/>
      </defs>
      <g>
       <use xlink:href="#m4de1df4077" x="92.19478" y="282.6" style="stroke: #000000; stroke-width: 0.8"/>
      </g>
     </g>
     <g id="text_1">
      <!-- 0 -->
      <g transform="translate(87.10478 301.7575)scale(0.16 -0.16)">
       <defs>
        <path id="DejaVuSans-30" d="M 2034 4250 
Q 1547 4250 1301 3770 
Q 1056 3291 1056 2328 
Q 1056 1369 1301 889 
Q 1547 409 2034 409 
Q 2525 409 2770 889 
Q 3016 1369 3016 2328 
Q 3016 3291 2770 3770 
Q 2525 4250 2034 4250 
z
M 2034 4750 
Q 2819 4750 3233 4129 
Q 3647 3509 3647 2328 
Q 3647 1150 3233 529 
Q 2819 -91 2034 -91 
Q 1250 -91 836 529 
Q 422 1150 422 2328 
Q 422 3509 836 4129 
Q 1250 4750 2034 4750 
z
" transform="scale(0.015625)"/>
       </defs>
       <use xlink:href="#DejaVuSans-30"/>
      </g>
     </g>
    </g>
    <g id="xtick_2">
     <g id="line2d_2">
      <g>
       <use xlink:href="#m4de1df4077" x="184.297231" y="282.6" style="stroke: #000000; stroke-width: 0.8"/>
      </g>
     </g>
     <g id="text_2">
      <!-- 10 -->
      <g transform="translate(174.117231 301.7575)scale(0.16 -0.16)">
       <defs>
        <path id="DejaVuSans-31" d="M 794 531 
L 1825 531 
L 1825 4091 
L 703 3866 
L 703 4441 
L 1819 4666 
L 2450 4666 
L 2450 531 
L 3481 531 
L 3481 0 
L 794 0 
L 794 531 
z
" transform="scale(0.015625)"/>
       </defs>
       <use xlink:href="#DejaVuSans-31"/>
       <use xlink:href="#DejaVuSans-30" x="63.623047"/>
      </g>
     </g>
    </g>
    <g id="xtick_3">
     <g id="line2d_3">
      <g>
       <use xlink:href="#m4de1df4077" x="276.399682" y="282.6" style="stroke: #000000; stroke-width: 0.8"/>
      </g>
     </g>
     <g id="text_3">
      <!-- 20 -->
      <g transform="translate(266.219682 301.7575)scale(0.16 -0.16)">
       <defs>
        <path id="DejaVuSans-32" d="M 1228 531 
L 3431 531 
L 3431 0 
L 469 0 
L 469 531 
Q 828 903 1448 1529 
Q 2069 2156 2228 2338 
Q 2531 2678 2651 2914 
Q 2772 3150 2772 3378 
Q 2772 3750 2511 3984 
Q 2250 4219 1831 4219 
Q 1534 4219 1204 4116 
Q 875 4013 500 3803 
L 500 4441 
Q 881 4594 1212 4672 
Q 1544 4750 1819 4750 
Q 2544 4750 2975 4387 
Q 3406 4025 3406 3419 
Q 3406 3131 3298 2873 
Q 3191 2616 2906 2266 
Q 2828 2175 2409 1742 
Q 1991 1309 1228 531 
z
" transform="scale(0.015625)"/>
       </defs>
       <use xlink:href="#DejaVuSans-32"/>
       <use xlink:href="#DejaVuSans-30" x="63.623047"/>
      </g>
     </g>
    </g>
    <g id="xtick_4">
     <g id="line2d_4">
      <g>
       <use xlink:href="#m4de1df4077" x="368.502132" y="282.6" style="stroke: #000000; stroke-width: 0.8"/>
      </g>
     </g>
     <g id="text_4">
      <!-- 30 -->
      <g transform="translate(358.322132 301.7575)scale(0.16 -0.16)">
       <defs>
        <path id="DejaVuSans-33" d="M 2597 2516 
Q 3050 2419 3304 2112 
Q 3559 1806 3559 1356 
Q 3559 666 3084 287 
Q 2609 -91 1734 -91 
Q 1441 -91 1130 -33 
Q 819 25 488 141 
L 488 750 
Q 750 597 1062 519 
Q 1375 441 1716 441 
Q 2309 441 2620 675 
Q 2931 909 2931 1356 
Q 2931 1769 2642 2001 
Q 2353 2234 1838 2234 
L 1294 2234 
L 1294 2753 
L 1863 2753 
Q 2328 2753 2575 2939 
Q 2822 3125 2822 3475 
Q 2822 3834 2567 4026 
Q 2313 4219 1838 4219 
Q 1578 4219 1281 4162 
Q 984 4106 628 3988 
L 628 4550 
Q 988 4650 1302 4700 
Q 1616 4750 1894 4750 
Q 2613 4750 3031 4423 
Q 3450 4097 3450 3541 
Q 3450 3153 3228 2886 
Q 3006 2619 2597 2516 
z
" transform="scale(0.015625)"/>
       </defs>
       <use xlink:href="#DejaVuSans-33"/>
       <use xlink:href="#DejaVuSans-30" x="63.623047"/>
      </g>
     </g>
    </g>
    <g id="xtick_5">
     <g id="line2d_5">
      <g>
       <use xlink:href="#m4de1df4077" x="460.604583" y="282.6" style="stroke: #000000; stroke-width: 0.8"/>
      </g>
     </g>
     <g id="text_5">
      <!-- 40 -->
      <g transform="translate(450.424583 301.7575)scale(0.16 -0.16)">
       <defs>
        <path id="DejaVuSans-34" d="M 2419 4116 
L 825 1625 
L 2419 1625 
L 2419 4116 
z
M 2253 4666 
L 3047 4666 
L 3047 1625 
L 3713 1625 
L 3713 1100 
L 3047 1100 
L 3047 0 
L 2419 0 
L 2419 1100 
L 313 1100 
L 313 1709 
L 2253 4666 
z
" transform="scale(0.015625)"/>
       </defs>
       <use xlink:href="#DejaVuSans-34"/>
       <use xlink:href="#DejaVuSans-30" x="63.623047"/>
      </g>
     </g>
    </g>
    <g id="xtick_6">
     <g id="line2d_6">
      <g>
       <use xlink:href="#m4de1df4077" x="552.707034" y="282.6" style="stroke: #000000; stroke-width: 0.8"/>
      </g>
     </g>
     <g id="text_6">
      <!-- 50 -->
      <g transform="translate(542.527034 301.7575)scale(0.16 -0.16)">
       <defs>
        <path id="DejaVuSans-35" d="M 691 4666 
L 3169 4666 
L 3169 4134 
L 1269 4134 
L 1269 2991 
Q 1406 3038 1543 3061 
Q 1681 3084 1819 3084 
Q 2600 3084 3056 2656 
Q 3513 2228 3513 1497 
Q 3513 744 3044 326 
Q 2575 -91 1722 -91 
Q 1428 -91 1123 -41 
Q 819 9 494 109 
L 494 744 
Q 775 591 1075 516 
Q 1375 441 1709 441 
Q 2250 441 2565 725 
Q 2881 1009 2881 1497 
Q 2881 1984 2565 2268 
Q 2250 2553 1709 2553 
Q 1456 2553 1204 2497 
Q 953 2441 691 2322 
L 691 4666 
z
" transform="scale(0.015625)"/>
       </defs>
       <use xlink:href="#DejaVuSans-35"/>
       <use xlink:href="#DejaVuSans-30" x="63.623047"/>
      </g>
     </g>
    </g>
    <g id="xtick_7">
     <g id="line2d_7">
      <g>
       <use xlink:href="#m4de1df4077" x="644.809485" y="282.6" style="stroke: #000000; stroke-width: 0.8"/>
      </g>
     </g>
     <g id="text_7">
      <!-- 60 -->
      <g transform="translate(634.629485 301.7575)scale(0.16 -0.16)">
       <defs>
        <path id="DejaVuSans-36" d="M 2113 2584 
Q 1688 2584 1439 2293 
Q 1191 2003 1191 1497 
Q 1191 994 1439 701 
Q 1688 409 2113 409 
Q 2538 409 2786 701 
Q 3034 994 3034 1497 
Q 3034 2003 2786 2293 
Q 2538 2584 2113 2584 
z
M 3366 4563 
L 3366 3988 
Q 3128 4100 2886 4159 
Q 2644 4219 2406 4219 
Q 1781 4219 1451 3797 
Q 1122 3375 1075 2522 
Q 1259 2794 1537 2939 
Q 1816 3084 2150 3084 
Q 2853 3084 3261 2657 
Q 3669 2231 3669 1497 
Q 3669 778 3244 343 
Q 2819 -91 2113 -91 
Q 1303 -91 875 529 
Q 447 1150 447 2328 
Q 447 3434 972 4092 
Q 1497 4750 2381 4750 
Q 2619 4750 2861 4703 
Q 3103 4656 3366 4563 
z
" transform="scale(0.015625)"/>
       </defs>
       <use xlink:href="#DejaVuSans-36"/>
       <use xlink:href="#DejaVuSans-30" x="63.623047"/>
      </g>
     </g>
    </g>
   </g>
   <g id="matplotlib.axis_2">
    <g id="ytick_1">
     <g id="line2d_8">
      <defs>
       <path id="m644897889c" d="M 0 0 
L -3.5 0 
" style="stroke: #000000; stroke-width: 0.8"/>
      </defs>
      <g>
       <use xlink:href="#m644897889c" x="59.13" y="282.6" style="stroke: #000000; stroke-width: 0.8"/>
      </g>
     </g>
     <g id="text_8">
      <!-- 0.0 -->
      <g transform="translate(26.685 288.67875)scale(0.16 -0.16)">
       <defs>
        <path id="DejaVuSans-2e" d="M 684 794 
L 1344 794 
L 1344 0 
L 684 0 
L 684 794 
z
" transform="scale(0.015625)"/>
       </defs>
       <use xlink:href="#DejaVuSans-30"/>
       <use xlink:href="#DejaVuSans-2e" x="63.623047"/>
       <use xlink:href="#DejaVuSans-30" x="95.410156"/>
      </g>
     </g>
    </g>
    <g id="ytick_2">
     <g id="line2d_9">
      <g>
       <use xlink:href="#m644897889c" x="59.13" y="241.545455" style="stroke: #000000; stroke-width: 0.8"/>
      </g>
     </g>
     <g id="text_9">
      <!-- 0.2 -->
      <g transform="translate(26.685 247.624205)scale(0.16 -0.16)">
       <use xlink:href="#DejaVuSans-30"/>
       <use xlink:href="#DejaVuSans-2e" x="63.623047"/>
       <use xlink:href="#DejaVuSans-32" x="95.410156"/>
      </g>
     </g>
    </g>
    <g id="ytick_3">
     <g id="line2d_10">
      <g>
       <use xlink:href="#m644897889c" x="59.13" y="200.490909" style="stroke: #000000; stroke-width: 0.8"/>
      </g>
     </g>
     <g id="text_10">
      <!-- 0.4 -->
      <g transform="translate(26.685 206.569659)scale(0.16 -0.16)">
       <use xlink:href="#DejaVuSans-30"/>
       <use xlink:href="#DejaVuSans-2e" x="63.623047"/>
       <use xlink:href="#DejaVuSans-34" x="95.410156"/>
      </g>
     </g>
    </g>
    <g id="ytick_4">
     <g id="line2d_11">
      <g>
       <use xlink:href="#m644897889c" x="59.13" y="159.436364" style="stroke: #000000; stroke-width: 0.8"/>
      </g>
     </g>
     <g id="text_11">
      <!-- 0.6 -->
      <g transform="translate(26.685 165.515114)scale(0.16 -0.16)">
       <use xlink:href="#DejaVuSans-30"/>
       <use xlink:href="#DejaVuSans-2e" x="63.623047"/>
       <use xlink:href="#DejaVuSans-36" x="95.410156"/>
      </g>
     </g>
    </g>
    <g id="ytick_5">
     <g id="line2d_12">
      <g>
       <use xlink:href="#m644897889c" x="59.13" y="118.381818" style="stroke: #000000; stroke-width: 0.8"/>
      </g>
     </g>
     <g id="text_12">
      <!-- 0.8 -->
      <g transform="translate(26.685 124.460568)scale(0.16 -0.16)">
       <defs>
        <path id="DejaVuSans-38" d="M 2034 2216 
Q 1584 2216 1326 1975 
Q 1069 1734 1069 1313 
Q 1069 891 1326 650 
Q 1584 409 2034 409 
Q 2484 409 2743 651 
Q 3003 894 3003 1313 
Q 3003 1734 2745 1975 
Q 2488 2216 2034 2216 
z
M 1403 2484 
Q 997 2584 770 2862 
Q 544 3141 544 3541 
Q 544 4100 942 4425 
Q 1341 4750 2034 4750 
Q 2731 4750 3128 4425 
Q 3525 4100 3525 3541 
Q 3525 3141 3298 2862 
Q 3072 2584 2669 2484 
Q 3125 2378 3379 2068 
Q 3634 1759 3634 1313 
Q 3634 634 3220 271 
Q 2806 -91 2034 -91 
Q 1263 -91 848 271 
Q 434 634 434 1313 
Q 434 1759 690 2068 
Q 947 2378 1403 2484 
z
M 1172 3481 
Q 1172 3119 1398 2916 
Q 1625 2713 2034 2713 
Q 2441 2713 2670 2916 
Q 2900 3119 2900 3481 
Q 2900 3844 2670 4047 
Q 2441 4250 2034 4250 
Q 1625 4250 1398 4047 
Q 1172 3844 1172 3481 
z
" transform="scale(0.015625)"/>
       </defs>
       <use xlink:href="#DejaVuSans-30"/>
       <use xlink:href="#DejaVuSans-2e" x="63.623047"/>
       <use xlink:href="#DejaVuSans-38" x="95.410156"/>
      </g>
     </g>
    </g>
    <g id="ytick_6">
     <g id="line2d_13">
      <g>
       <use xlink:href="#m644897889c" x="59.13" y="77.327273" style="stroke: #000000; stroke-width: 0.8"/>
      </g>
     </g>
     <g id="text_13">
      <!-- 1.0 -->
      <g transform="translate(26.685 83.406023)scale(0.16 -0.16)">
       <use xlink:href="#DejaVuSans-31"/>
       <use xlink:href="#DejaVuSans-2e" x="63.623047"/>
       <use xlink:href="#DejaVuSans-30" x="95.410156"/>
      </g>
     </g>
    </g>
    <g id="text_14">
     <!-- Expectation -->
     <g transform="translate(19.3575 217.2525)rotate(-90)scale(0.16 -0.16)">
      <defs>
       <path id="DejaVuSans-45" d="M 628 4666 
L 3578 4666 
L 3578 4134 
L 1259 4134 
L 1259 2753 
L 3481 2753 
L 3481 2222 
L 1259 2222 
L 1259 531 
L 3634 531 
L 3634 0 
L 628 0 
L 628 4666 
z
" transform="scale(0.015625)"/>
       <path id="DejaVuSans-78" d="M 3513 3500 
L 2247 1797 
L 3578 0 
L 2900 0 
L 1881 1375 
L 863 0 
L 184 0 
L 1544 1831 
L 300 3500 
L 978 3500 
L 1906 2253 
L 2834 3500 
L 3513 3500 
z
" transform="scale(0.015625)"/>
       <path id="DejaVuSans-70" d="M 1159 525 
L 1159 -1331 
L 581 -1331 
L 581 3500 
L 1159 3500 
L 1159 2969 
Q 1341 3281 1617 3432 
Q 1894 3584 2278 3584 
Q 2916 3584 3314 3078 
Q 3713 2572 3713 1747 
Q 3713 922 3314 415 
Q 2916 -91 2278 -91 
Q 1894 -91 1617 61 
Q 1341 213 1159 525 
z
M 3116 1747 
Q 3116 2381 2855 2742 
Q 2594 3103 2138 3103 
Q 1681 3103 1420 2742 
Q 1159 2381 1159 1747 
Q 1159 1113 1420 752 
Q 1681 391 2138 391 
Q 2594 391 2855 752 
Q 3116 1113 3116 1747 
z
" transform="scale(0.015625)"/>
       <path id="DejaVuSans-65" d="M 3597 1894 
L 3597 1613 
L 953 1613 
Q 991 1019 1311 708 
Q 1631 397 2203 397 
Q 2534 397 2845 478 
Q 3156 559 3463 722 
L 3463 178 
Q 3153 47 2828 -22 
Q 2503 -91 2169 -91 
Q 1331 -91 842 396 
Q 353 884 353 1716 
Q 353 2575 817 3079 
Q 1281 3584 2069 3584 
Q 2775 3584 3186 3129 
Q 3597 2675 3597 1894 
z
M 3022 2063 
Q 3016 2534 2758 2815 
Q 2500 3097 2075 3097 
Q 1594 3097 1305 2825 
Q 1016 2553 972 2059 
L 3022 2063 
z
" transform="scale(0.015625)"/>
       <path id="DejaVuSans-63" d="M 3122 3366 
L 3122 2828 
Q 2878 2963 2633 3030 
Q 2388 3097 2138 3097 
Q 1578 3097 1268 2742 
Q 959 2388 959 1747 
Q 959 1106 1268 751 
Q 1578 397 2138 397 
Q 2388 397 2633 464 
Q 2878 531 3122 666 
L 3122 134 
Q 2881 22 2623 -34 
Q 2366 -91 2075 -91 
Q 1284 -91 818 406 
Q 353 903 353 1747 
Q 353 2603 823 3093 
Q 1294 3584 2113 3584 
Q 2378 3584 2631 3529 
Q 2884 3475 3122 3366 
z
" transform="scale(0.015625)"/>
       <path id="DejaVuSans-74" d="M 1172 4494 
L 1172 3500 
L 2356 3500 
L 2356 3053 
L 1172 3053 
L 1172 1153 
Q 1172 725 1289 603 
Q 1406 481 1766 481 
L 2356 481 
L 2356 0 
L 1766 0 
Q 1100 0 847 248 
Q 594 497 594 1153 
L 594 3053 
L 172 3053 
L 172 3500 
L 594 3500 
L 594 4494 
L 1172 4494 
z
" transform="scale(0.015625)"/>
       <path id="DejaVuSans-61" d="M 2194 1759 
Q 1497 1759 1228 1600 
Q 959 1441 959 1056 
Q 959 750 1161 570 
Q 1363 391 1709 391 
Q 2188 391 2477 730 
Q 2766 1069 2766 1631 
L 2766 1759 
L 2194 1759 
z
M 3341 1997 
L 3341 0 
L 2766 0 
L 2766 531 
Q 2569 213 2275 61 
Q 1981 -91 1556 -91 
Q 1019 -91 701 211 
Q 384 513 384 1019 
Q 384 1609 779 1909 
Q 1175 2209 1959 2209 
L 2766 2209 
L 2766 2266 
Q 2766 2663 2505 2880 
Q 2244 3097 1772 3097 
Q 1472 3097 1187 3025 
Q 903 2953 641 2809 
L 641 3341 
Q 956 3463 1253 3523 
Q 1550 3584 1831 3584 
Q 2591 3584 2966 3190 
Q 3341 2797 3341 1997 
z
" transform="scale(0.015625)"/>
       <path id="DejaVuSans-69" d="M 603 3500 
L 1178 3500 
L 1178 0 
L 603 0 
L 603 3500 
z
M 603 4863 
L 1178 4863 
L 1178 4134 
L 603 4134 
L 603 4863 
z
" transform="scale(0.015625)"/>
       <path id="DejaVuSans-6f" d="M 1959 3097 
Q 1497 3097 1228 2736 
Q 959 2375 959 1747 
Q 959 1119 1226 758 
Q 1494 397 1959 397 
Q 2419 397 2687 759 
Q 2956 1122 2956 1747 
Q 2956 2369 2687 2733 
Q 2419 3097 1959 3097 
z
M 1959 3584 
Q 2709 3584 3137 3096 
Q 3566 2609 3566 1747 
Q 3566 888 3137 398 
Q 2709 -91 1959 -91 
Q 1206 -91 779 398 
Q 353 888 353 1747 
Q 353 2609 779 3096 
Q 1206 3584 1959 3584 
z
" transform="scale(0.015625)"/>
       <path id="DejaVuSans-6e" d="M 3513 2113 
L 3513 0 
L 2938 0 
L 2938 2094 
Q 2938 2591 2744 2837 
Q 2550 3084 2163 3084 
Q 1697 3084 1428 2787 
Q 1159 2491 1159 1978 
L 1159 0 
L 581 0 
L 581 3500 
L 1159 3500 
L 1159 2956 
Q 1366 3272 1645 3428 
Q 1925 3584 2291 3584 
Q 2894 3584 3203 3211 
Q 3513 2838 3513 2113 
z
" transform="scale(0.015625)"/>
      </defs>
      <use xlink:href="#DejaVuSans-45"/>
      <use xlink:href="#DejaVuSans-78" x="63.183594"/>
      <use xlink:href="#DejaVuSans-70" x="122.363281"/>
      <use xlink:href="#DejaVuSans-65" x="185.839844"/>
      <use xlink:href="#DejaVuSans-63" x="247.363281"/>
      <use xlink:href="#DejaVuSans-74" x="302.34375"/>
      <use xlink:href="#DejaVuSans-61" x="341.552734"/>
      <use xlink:href="#DejaVuSans-74" x="402.832031"/>
      <use xlink:href="#DejaVuSans-69" x="442.041016"/>
      <use xlink:href="#DejaVuSans-6f" x="469.824219"/>
      <use xlink:href="#DejaVuSans-6e" x="531.005859"/>
     </g>
    </g>
   </g>
   <g id="LineCollection_1">
    <path d="M 90.352731 149.33916 
L 90.352731 135.323666 
" clip-path="url(#pada27038e5)" style="fill: none; stroke: #000000; stroke-width: 1.5"/>
    <path d="M 99.562976 134.074556 
L 99.562976 123.3385 
" clip-path="url(#pada27038e5)" style="fill: none; stroke: #000000; stroke-width: 1.5"/>
    <path d="M 108.773221 125.985344 
L 108.773221 113.140992 
" clip-path="url(#pada27038e5)" style="fill: none; stroke: #000000; stroke-width: 1.5"/>
    <path d="M 117.983466 111.465917 
L 117.983466 102.095211 
" clip-path="url(#pada27038e5)" style="fill: none; stroke: #000000; stroke-width: 1.5"/>
    <path d="M 127.193711 142.578937 
L 127.193711 128.091726 
" clip-path="url(#pada27038e5)" style="fill: none; stroke: #000000; stroke-width: 1.5"/>
    <path d="M 136.403956 126.848148 
L 136.403956 115.734644 
" clip-path="url(#pada27038e5)" style="fill: none; stroke: #000000; stroke-width: 1.5"/>
    <path d="M 145.614201 121.13648 
L 145.614201 108.197923 
" clip-path="url(#pada27038e5)" style="fill: none; stroke: #000000; stroke-width: 1.5"/>
    <path d="M 154.824446 106.182711 
L 154.824446 96.921535 
" clip-path="url(#pada27038e5)" style="fill: none; stroke: #000000; stroke-width: 1.5"/>
    <path d="M 164.034692 144.033908 
L 164.034692 130.820967 
" clip-path="url(#pada27038e5)" style="fill: none; stroke: #000000; stroke-width: 1.5"/>
    <path d="M 173.244937 128.061094 
L 173.244937 118.417923 
" clip-path="url(#pada27038e5)" style="fill: none; stroke: #000000; stroke-width: 1.5"/>
    <path d="M 182.455182 121.027473 
L 182.455182 109.179949 
" clip-path="url(#pada27038e5)" style="fill: none; stroke: #000000; stroke-width: 1.5"/>
    <path d="M 191.665427 105.867555 
L 191.665427 98.045221 
" clip-path="url(#pada27038e5)" style="fill: none; stroke: #000000; stroke-width: 1.5"/>
    <path d="M 200.875672 137.306097 
L 200.875672 123.482272 
" clip-path="url(#pada27038e5)" style="fill: none; stroke: #000000; stroke-width: 1.5"/>
    <path d="M 210.085917 120.89216 
L 210.085917 110.681866 
" clip-path="url(#pada27038e5)" style="fill: none; stroke: #000000; stroke-width: 1.5"/>
    <path d="M 219.296162 116.130335 
L 219.296162 104.219861 
" clip-path="url(#pada27038e5)" style="fill: none; stroke: #000000; stroke-width: 1.5"/>
    <path d="M 228.506407 100.526031 
L 228.506407 92.859644 
" clip-path="url(#pada27038e5)" style="fill: none; stroke: #000000; stroke-width: 1.5"/>
    <path d="M 237.716652 134.723802 
L 237.716652 124.870032 
" clip-path="url(#pada27038e5)" style="fill: none; stroke: #000000; stroke-width: 1.5"/>
    <path d="M 246.926897 117.65969 
L 246.926897 112.155694 
" clip-path="url(#pada27038e5)" style="fill: none; stroke: #000000; stroke-width: 1.5"/>
    <path d="M 256.137142 108.762831 
L 256.137142 101.091916 
" clip-path="url(#pada27038e5)" style="fill: none; stroke: #000000; stroke-width: 1.5"/>
    <path d="M 265.347387 92.853037 
L 265.347387 89.050014 
" clip-path="url(#pada27038e5)" style="fill: none; stroke: #000000; stroke-width: 1.5"/>
    <path d="M 274.557633 127.307315 
L 274.557633 117.020076 
" clip-path="url(#pada27038e5)" style="fill: none; stroke: #000000; stroke-width: 1.5"/>
    <path d="M 283.767878 109.870041 
L 283.767878 103.762089 
" clip-path="url(#pada27038e5)" style="fill: none; stroke: #000000; stroke-width: 1.5"/>
    <path d="M 292.978123 103.258751 
L 292.978123 95.904823 
" clip-path="url(#pada27038e5)" style="fill: none; stroke: #000000; stroke-width: 1.5"/>
    <path d="M 302.188368 86.498037 
L 302.188368 83.98575 
" clip-path="url(#pada27038e5)" style="fill: none; stroke: #000000; stroke-width: 1.5"/>
    <path d="M 311.398613 129.605017 
L 311.398613 119.987216 
" clip-path="url(#pada27038e5)" style="fill: none; stroke: #000000; stroke-width: 1.5"/>
    <path d="M 320.608858 111.961385 
L 320.608858 106.6978 
" clip-path="url(#pada27038e5)" style="fill: none; stroke: #000000; stroke-width: 1.5"/>
    <path d="M 329.819103 104.095075 
L 329.819103 96.730693 
" clip-path="url(#pada27038e5)" style="fill: none; stroke: #000000; stroke-width: 1.5"/>
    <path d="M 339.029348 87.520198 
L 339.029348 84.620495 
" clip-path="url(#pada27038e5)" style="fill: none; stroke: #000000; stroke-width: 1.5"/>
    <path d="M 348.239593 122.234126 
L 348.239593 112.025408 
" clip-path="url(#pada27038e5)" style="fill: none; stroke: #000000; stroke-width: 1.5"/>
    <path d="M 357.449838 104.246922 
L 357.449838 98.164407 
" clip-path="url(#pada27038e5)" style="fill: none; stroke: #000000; stroke-width: 1.5"/>
    <path d="M 366.660083 98.618956 
L 366.660083 91.452849 
" clip-path="url(#pada27038e5)" style="fill: none; stroke: #000000; stroke-width: 1.5"/>
    <path d="M 375.870328 81.141855 
L 375.870328 79.513071 
" clip-path="url(#pada27038e5)" style="fill: none; stroke: #000000; stroke-width: 1.5"/>
    <path d="M 385.080574 147.514004 
L 385.080574 133.967176 
" clip-path="url(#pada27038e5)" style="fill: none; stroke: #000000; stroke-width: 1.5"/>
    <path d="M 394.290819 132.086375 
L 394.290819 121.822477 
" clip-path="url(#pada27038e5)" style="fill: none; stroke: #000000; stroke-width: 1.5"/>
    <path d="M 403.501064 123.780335 
L 403.501064 111.656851 
" clip-path="url(#pada27038e5)" style="fill: none; stroke: #000000; stroke-width: 1.5"/>
    <path d="M 412.711309 109.132891 
L 412.711309 100.433893 
" clip-path="url(#pada27038e5)" style="fill: none; stroke: #000000; stroke-width: 1.5"/>
    <path d="M 421.921554 140.69216 
L 421.921554 126.640496 
" clip-path="url(#pada27038e5)" style="fill: none; stroke: #000000; stroke-width: 1.5"/>
    <path d="M 431.131799 124.809532 
L 431.131799 114.102536 
" clip-path="url(#pada27038e5)" style="fill: none; stroke: #000000; stroke-width: 1.5"/>
    <path d="M 440.342044 118.881419 
L 440.342044 106.655459 
" clip-path="url(#pada27038e5)" style="fill: none; stroke: #000000; stroke-width: 1.5"/>
    <path d="M 449.552289 103.797382 
L 449.552289 95.1966 
" clip-path="url(#pada27038e5)" style="fill: none; stroke: #000000; stroke-width: 1.5"/>
    <path d="M 458.762534 142.164537 
L 458.762534 129.392049 
" clip-path="url(#pada27038e5)" style="fill: none; stroke: #000000; stroke-width: 1.5"/>
    <path d="M 467.972779 126.049478 
L 467.972779 116.794802 
" clip-path="url(#pada27038e5)" style="fill: none; stroke: #000000; stroke-width: 1.5"/>
    <path d="M 477.183024 118.756926 
L 477.183024 107.658284 
" clip-path="url(#pada27038e5)" style="fill: none; stroke: #000000; stroke-width: 1.5"/>
    <path d="M 486.393269 103.470035 
L 486.393269 96.336151 
" clip-path="url(#pada27038e5)" style="fill: none; stroke: #000000; stroke-width: 1.5"/>
    <path d="M 495.603515 135.375281 
L 495.603515 121.957982 
" clip-path="url(#pada27038e5)" style="fill: none; stroke: #000000; stroke-width: 1.5"/>
    <path d="M 504.81376 118.830272 
L 504.81376 108.942102 
" clip-path="url(#pada27038e5)" style="fill: none; stroke: #000000; stroke-width: 1.5"/>
    <path d="M 514.024005 113.807489 
L 514.024005 102.641485 
" clip-path="url(#pada27038e5)" style="fill: none; stroke: #000000; stroke-width: 1.5"/>
    <path d="M 523.23425 98.073737 
L 523.23425 91.088751 
" clip-path="url(#pada27038e5)" style="fill: none; stroke: #000000; stroke-width: 1.5"/>
    <path d="M 532.444495 132.566546 
L 532.444495 122.493037 
" clip-path="url(#pada27038e5)" style="fill: none; stroke: #000000; stroke-width: 1.5"/>
    <path d="M 541.65474 115.126329 
L 541.65474 109.717892 
" clip-path="url(#pada27038e5)" style="fill: none; stroke: #000000; stroke-width: 1.5"/>
    <path d="M 550.864985 106.04255 
L 550.864985 98.544878 
" clip-path="url(#pada27038e5)" style="fill: none; stroke: #000000; stroke-width: 1.5"/>
    <path d="M 560.07523 89.760519 
L 560.07523 86.459523 
" clip-path="url(#pada27038e5)" style="fill: none; stroke: #000000; stroke-width: 1.5"/>
    <path d="M 569.285475 125.025552 
L 569.285475 114.540704 
" clip-path="url(#pada27038e5)" style="fill: none; stroke: #000000; stroke-width: 1.5"/>
    <path d="M 578.49572 107.17729 
L 578.49572 101.243844 
" clip-path="url(#pada27038e5)" style="fill: none; stroke: #000000; stroke-width: 1.5"/>
    <path d="M 587.705965 100.508046 
L 587.705965 93.225877 
" clip-path="url(#pada27038e5)" style="fill: none; stroke: #000000; stroke-width: 1.5"/>
    <path d="M 596.91621 83.323182 
L 596.91621 81.304612 
" clip-path="url(#pada27038e5)" style="fill: none; stroke: #000000; stroke-width: 1.5"/>
    <path d="M 606.126456 127.384702 
L 606.126456 117.524444 
" clip-path="url(#pada27038e5)" style="fill: none; stroke: #000000; stroke-width: 1.5"/>
    <path d="M 615.336701 109.36105 
L 615.336701 104.161095 
" clip-path="url(#pada27038e5)" style="fill: none; stroke: #000000; stroke-width: 1.5"/>
    <path d="M 624.546946 101.290405 
L 624.546946 94.13508 
" clip-path="url(#pada27038e5)" style="fill: none; stroke: #000000; stroke-width: 1.5"/>
    <path d="M 633.757191 84.216024 
L 633.757191 82.097793 
" clip-path="url(#pada27038e5)" style="fill: none; stroke: #000000; stroke-width: 1.5"/>
    <path d="M 642.967436 119.88686 
L 642.967436 109.462177 
" clip-path="url(#pada27038e5)" style="fill: none; stroke: #000000; stroke-width: 1.5"/>
    <path d="M 652.177681 101.484426 
L 652.177681 95.549559 
" clip-path="url(#pada27038e5)" style="fill: none; stroke: #000000; stroke-width: 1.5"/>
    <path d="M 661.387926 95.784716 
L 661.387926 88.723958 
" clip-path="url(#pada27038e5)" style="fill: none; stroke: #000000; stroke-width: 1.5"/>
    <path d="M 670.598171 77.327273 
L 670.598171 77.327273 
" clip-path="url(#pada27038e5)" style="fill: none; stroke: #000000; stroke-width: 1.5"/>
   </g>
   <g id="line2d_14">
    <defs>
     <path id="m383ba8d87b" d="M 2 0 
L -2 -0 
" style="stroke: #000000"/>
    </defs>
    <g clip-path="url(#pada27038e5)">
     <use xlink:href="#m383ba8d87b" x="90.352731" y="149.33916" style="stroke: #000000"/>
     <use xlink:href="#m383ba8d87b" x="99.562976" y="134.074556" style="stroke: #000000"/>
     <use xlink:href="#m383ba8d87b" x="108.773221" y="125.985344" style="stroke: #000000"/>
     <use xlink:href="#m383ba8d87b" x="117.983466" y="111.465917" style="stroke: #000000"/>
     <use xlink:href="#m383ba8d87b" x="127.193711" y="142.578937" style="stroke: #000000"/>
     <use xlink:href="#m383ba8d87b" x="136.403956" y="126.848148" style="stroke: #000000"/>
     <use xlink:href="#m383ba8d87b" x="145.614201" y="121.13648" style="stroke: #000000"/>
     <use xlink:href="#m383ba8d87b" x="154.824446" y="106.182711" style="stroke: #000000"/>
     <use xlink:href="#m383ba8d87b" x="164.034692" y="144.033908" style="stroke: #000000"/>
     <use xlink:href="#m383ba8d87b" x="173.244937" y="128.061094" style="stroke: #000000"/>
     <use xlink:href="#m383ba8d87b" x="182.455182" y="121.027473" style="stroke: #000000"/>
     <use xlink:href="#m383ba8d87b" x="191.665427" y="105.867555" style="stroke: #000000"/>
     <use xlink:href="#m383ba8d87b" x="200.875672" y="137.306097" style="stroke: #000000"/>
     <use xlink:href="#m383ba8d87b" x="210.085917" y="120.89216" style="stroke: #000000"/>
     <use xlink:href="#m383ba8d87b" x="219.296162" y="116.130335" style="stroke: #000000"/>
     <use xlink:href="#m383ba8d87b" x="228.506407" y="100.526031" style="stroke: #000000"/>
     <use xlink:href="#m383ba8d87b" x="237.716652" y="134.723802" style="stroke: #000000"/>
     <use xlink:href="#m383ba8d87b" x="246.926897" y="117.65969" style="stroke: #000000"/>
     <use xlink:href="#m383ba8d87b" x="256.137142" y="108.762831" style="stroke: #000000"/>
     <use xlink:href="#m383ba8d87b" x="265.347387" y="92.853037" style="stroke: #000000"/>
     <use xlink:href="#m383ba8d87b" x="274.557633" y="127.307315" style="stroke: #000000"/>
     <use xlink:href="#m383ba8d87b" x="283.767878" y="109.870041" style="stroke: #000000"/>
     <use xlink:href="#m383ba8d87b" x="292.978123" y="103.258751" style="stroke: #000000"/>
     <use xlink:href="#m383ba8d87b" x="302.188368" y="86.498037" style="stroke: #000000"/>
     <use xlink:href="#m383ba8d87b" x="311.398613" y="129.605017" style="stroke: #000000"/>
     <use xlink:href="#m383ba8d87b" x="320.608858" y="111.961385" style="stroke: #000000"/>
     <use xlink:href="#m383ba8d87b" x="329.819103" y="104.095075" style="stroke: #000000"/>
     <use xlink:href="#m383ba8d87b" x="339.029348" y="87.520198" style="stroke: #000000"/>
     <use xlink:href="#m383ba8d87b" x="348.239593" y="122.234126" style="stroke: #000000"/>
     <use xlink:href="#m383ba8d87b" x="357.449838" y="104.246922" style="stroke: #000000"/>
     <use xlink:href="#m383ba8d87b" x="366.660083" y="98.618956" style="stroke: #000000"/>
     <use xlink:href="#m383ba8d87b" x="375.870328" y="81.141855" style="stroke: #000000"/>
     <use xlink:href="#m383ba8d87b" x="385.080574" y="147.514004" style="stroke: #000000"/>
     <use xlink:href="#m383ba8d87b" x="394.290819" y="132.086375" style="stroke: #000000"/>
     <use xlink:href="#m383ba8d87b" x="403.501064" y="123.780335" style="stroke: #000000"/>
     <use xlink:href="#m383ba8d87b" x="412.711309" y="109.132891" style="stroke: #000000"/>
     <use xlink:href="#m383ba8d87b" x="421.921554" y="140.69216" style="stroke: #000000"/>
     <use xlink:href="#m383ba8d87b" x="431.131799" y="124.809532" style="stroke: #000000"/>
     <use xlink:href="#m383ba8d87b" x="440.342044" y="118.881419" style="stroke: #000000"/>
     <use xlink:href="#m383ba8d87b" x="449.552289" y="103.797382" style="stroke: #000000"/>
     <use xlink:href="#m383ba8d87b" x="458.762534" y="142.164537" style="stroke: #000000"/>
     <use xlink:href="#m383ba8d87b" x="467.972779" y="126.049478" style="stroke: #000000"/>
     <use xlink:href="#m383ba8d87b" x="477.183024" y="118.756926" style="stroke: #000000"/>
     <use xlink:href="#m383ba8d87b" x="486.393269" y="103.470035" style="stroke: #000000"/>
     <use xlink:href="#m383ba8d87b" x="495.603515" y="135.375281" style="stroke: #000000"/>
     <use xlink:href="#m383ba8d87b" x="504.81376" y="118.830272" style="stroke: #000000"/>
     <use xlink:href="#m383ba8d87b" x="514.024005" y="113.807489" style="stroke: #000000"/>
     <use xlink:href="#m383ba8d87b" x="523.23425" y="98.073737" style="stroke: #000000"/>
     <use xlink:href="#m383ba8d87b" x="532.444495" y="132.566546" style="stroke: #000000"/>
     <use xlink:href="#m383ba8d87b" x="541.65474" y="115.126329" style="stroke: #000000"/>
     <use xlink:href="#m383ba8d87b" x="550.864985" y="106.04255" style="stroke: #000000"/>
     <use xlink:href="#m383ba8d87b" x="560.07523" y="89.760519" style="stroke: #000000"/>
     <use xlink:href="#m383ba8d87b" x="569.285475" y="125.025552" style="stroke: #000000"/>
     <use xlink:href="#m383ba8d87b" x="578.49572" y="107.17729" style="stroke: #000000"/>
     <use xlink:href="#m383ba8d87b" x="587.705965" y="100.508046" style="stroke: #000000"/>
     <use xlink:href="#m383ba8d87b" x="596.91621" y="83.323182" style="stroke: #000000"/>
     <use xlink:href="#m383ba8d87b" x="606.126456" y="127.384702" style="stroke: #000000"/>
     <use xlink:href="#m383ba8d87b" x="615.336701" y="109.36105" style="stroke: #000000"/>
     <use xlink:href="#m383ba8d87b" x="624.546946" y="101.290405" style="stroke: #000000"/>
     <use xlink:href="#m383ba8d87b" x="633.757191" y="84.216024" style="stroke: #000000"/>
     <use xlink:href="#m383ba8d87b" x="642.967436" y="119.88686" style="stroke: #000000"/>
     <use xlink:href="#m383ba8d87b" x="652.177681" y="101.484426" style="stroke: #000000"/>
     <use xlink:href="#m383ba8d87b" x="661.387926" y="95.784716" style="stroke: #000000"/>
     <use xlink:href="#m383ba8d87b" x="670.598171" y="77.327273" style="stroke: #000000"/>
    </g>
   </g>
   <g id="line2d_15">
    <g clip-path="url(#pada27038e5)">
     <use xlink:href="#m383ba8d87b" x="90.352731" y="135.323666" style="stroke: #000000"/>
     <use xlink:href="#m383ba8d87b" x="99.562976" y="123.3385" style="stroke: #000000"/>
     <use xlink:href="#m383ba8d87b" x="108.773221" y="113.140992" style="stroke: #000000"/>
     <use xlink:href="#m383ba8d87b" x="117.983466" y="102.095211" style="stroke: #000000"/>
     <use xlink:href="#m383ba8d87b" x="127.193711" y="128.091726" style="stroke: #000000"/>
     <use xlink:href="#m383ba8d87b" x="136.403956" y="115.734644" style="stroke: #000000"/>
     <use xlink:href="#m383ba8d87b" x="145.614201" y="108.197923" style="stroke: #000000"/>
     <use xlink:href="#m383ba8d87b" x="154.824446" y="96.921535" style="stroke: #000000"/>
     <use xlink:href="#m383ba8d87b" x="164.034692" y="130.820967" style="stroke: #000000"/>
     <use xlink:href="#m383ba8d87b" x="173.244937" y="118.417923" style="stroke: #000000"/>
     <use xlink:href="#m383ba8d87b" x="182.455182" y="109.179949" style="stroke: #000000"/>
     <use xlink:href="#m383ba8d87b" x="191.665427" y="98.045221" style="stroke: #000000"/>
     <use xlink:href="#m383ba8d87b" x="200.875672" y="123.482272" style="stroke: #000000"/>
     <use xlink:href="#m383ba8d87b" x="210.085917" y="110.681866" style="stroke: #000000"/>
     <use xlink:href="#m383ba8d87b" x="219.296162" y="104.219861" style="stroke: #000000"/>
     <use xlink:href="#m383ba8d87b" x="228.506407" y="92.859644" style="stroke: #000000"/>
     <use xlink:href="#m383ba8d87b" x="237.716652" y="124.870032" style="stroke: #000000"/>
     <use xlink:href="#m383ba8d87b" x="246.926897" y="112.155694" style="stroke: #000000"/>
     <use xlink:href="#m383ba8d87b" x="256.137142" y="101.091916" style="stroke: #000000"/>
     <use xlink:href="#m383ba8d87b" x="265.347387" y="89.050014" style="stroke: #000000"/>
     <use xlink:href="#m383ba8d87b" x="274.557633" y="117.020076" style="stroke: #000000"/>
     <use xlink:href="#m383ba8d87b" x="283.767878" y="103.762089" style="stroke: #000000"/>
     <use xlink:href="#m383ba8d87b" x="292.978123" y="95.904823" style="stroke: #000000"/>
     <use xlink:href="#m383ba8d87b" x="302.188368" y="83.98575" style="stroke: #000000"/>
     <use xlink:href="#m383ba8d87b" x="311.398613" y="119.987216" style="stroke: #000000"/>
     <use xlink:href="#m383ba8d87b" x="320.608858" y="106.6978" style="stroke: #000000"/>
     <use xlink:href="#m383ba8d87b" x="329.819103" y="96.730693" style="stroke: #000000"/>
     <use xlink:href="#m383ba8d87b" x="339.029348" y="84.620495" style="stroke: #000000"/>
     <use xlink:href="#m383ba8d87b" x="348.239593" y="112.025408" style="stroke: #000000"/>
     <use xlink:href="#m383ba8d87b" x="357.449838" y="98.164407" style="stroke: #000000"/>
     <use xlink:href="#m383ba8d87b" x="366.660083" y="91.452849" style="stroke: #000000"/>
     <use xlink:href="#m383ba8d87b" x="375.870328" y="79.513071" style="stroke: #000000"/>
     <use xlink:href="#m383ba8d87b" x="385.080574" y="133.967176" style="stroke: #000000"/>
     <use xlink:href="#m383ba8d87b" x="394.290819" y="121.822477" style="stroke: #000000"/>
     <use xlink:href="#m383ba8d87b" x="403.501064" y="111.656851" style="stroke: #000000"/>
     <use xlink:href="#m383ba8d87b" x="412.711309" y="100.433893" style="stroke: #000000"/>
     <use xlink:href="#m383ba8d87b" x="421.921554" y="126.640496" style="stroke: #000000"/>
     <use xlink:href="#m383ba8d87b" x="431.131799" y="114.102536" style="stroke: #000000"/>
     <use xlink:href="#m383ba8d87b" x="440.342044" y="106.655459" style="stroke: #000000"/>
     <use xlink:href="#m383ba8d87b" x="449.552289" y="95.1966" style="stroke: #000000"/>
     <use xlink:href="#m383ba8d87b" x="458.762534" y="129.392049" style="stroke: #000000"/>
     <use xlink:href="#m383ba8d87b" x="467.972779" y="116.794802" style="stroke: #000000"/>
     <use xlink:href="#m383ba8d87b" x="477.183024" y="107.658284" style="stroke: #000000"/>
     <use xlink:href="#m383ba8d87b" x="486.393269" y="96.336151" style="stroke: #000000"/>
     <use xlink:href="#m383ba8d87b" x="495.603515" y="121.957982" style="stroke: #000000"/>
     <use xlink:href="#m383ba8d87b" x="504.81376" y="108.942102" style="stroke: #000000"/>
     <use xlink:href="#m383ba8d87b" x="514.024005" y="102.641485" style="stroke: #000000"/>
     <use xlink:href="#m383ba8d87b" x="523.23425" y="91.088751" style="stroke: #000000"/>
     <use xlink:href="#m383ba8d87b" x="532.444495" y="122.493037" style="stroke: #000000"/>
     <use xlink:href="#m383ba8d87b" x="541.65474" y="109.717892" style="stroke: #000000"/>
     <use xlink:href="#m383ba8d87b" x="550.864985" y="98.544878" style="stroke: #000000"/>
     <use xlink:href="#m383ba8d87b" x="560.07523" y="86.459523" style="stroke: #000000"/>
     <use xlink:href="#m383ba8d87b" x="569.285475" y="114.540704" style="stroke: #000000"/>
     <use xlink:href="#m383ba8d87b" x="578.49572" y="101.243844" style="stroke: #000000"/>
     <use xlink:href="#m383ba8d87b" x="587.705965" y="93.225877" style="stroke: #000000"/>
     <use xlink:href="#m383ba8d87b" x="596.91621" y="81.304612" style="stroke: #000000"/>
     <use xlink:href="#m383ba8d87b" x="606.126456" y="117.524444" style="stroke: #000000"/>
     <use xlink:href="#m383ba8d87b" x="615.336701" y="104.161095" style="stroke: #000000"/>
     <use xlink:href="#m383ba8d87b" x="624.546946" y="94.13508" style="stroke: #000000"/>
     <use xlink:href="#m383ba8d87b" x="633.757191" y="82.097793" style="stroke: #000000"/>
     <use xlink:href="#m383ba8d87b" x="642.967436" y="109.462177" style="stroke: #000000"/>
     <use xlink:href="#m383ba8d87b" x="652.177681" y="95.549559" style="stroke: #000000"/>
     <use xlink:href="#m383ba8d87b" x="661.387926" y="88.723958" style="stroke: #000000"/>
     <use xlink:href="#m383ba8d87b" x="670.598171" y="77.327273" style="stroke: #000000"/>
    </g>
   </g>
   <g id="patch_131">
    <path d="M 59.13 282.6 
L 59.13 56.8 
" style="fill: none; stroke: #000000; stroke-width: 0.8; stroke-linejoin: miter; stroke-linecap: square"/>
   </g>
   <g id="patch_132">
    <path d="M 705.505 282.6 
L 705.505 56.8 
" style="fill: none; stroke: #000000; stroke-width: 0.8; stroke-linejoin: miter; stroke-linecap: square"/>
   </g>
   <g id="patch_133">
    <path d="M 59.13 282.6 
L 705.505 282.6 
" style="fill: none; stroke: #000000; stroke-width: 0.8; stroke-linejoin: miter; stroke-linecap: square"/>
   </g>
   <g id="patch_134">
    <path d="M 59.13 56.8 
L 705.505 56.8 
" style="fill: none; stroke: #000000; stroke-width: 0.8; stroke-linejoin: miter; stroke-linecap: square"/>
   </g>
   <g id="text_15">
    <!-- Measurement Basis (ZX) -->
    <g transform="translate(284.16375 50.8)scale(0.16 -0.16)">
     <defs>
      <path id="DejaVuSans-4d" d="M 628 4666 
L 1569 4666 
L 2759 1491 
L 3956 4666 
L 4897 4666 
L 4897 0 
L 4281 0 
L 4281 4097 
L 3078 897 
L 2444 897 
L 1241 4097 
L 1241 0 
L 628 0 
L 628 4666 
z
" transform="scale(0.015625)"/>
      <path id="DejaVuSans-73" d="M 2834 3397 
L 2834 2853 
Q 2591 2978 2328 3040 
Q 2066 3103 1784 3103 
Q 1356 3103 1142 2972 
Q 928 2841 928 2578 
Q 928 2378 1081 2264 
Q 1234 2150 1697 2047 
L 1894 2003 
Q 2506 1872 2764 1633 
Q 3022 1394 3022 966 
Q 3022 478 2636 193 
Q 2250 -91 1575 -91 
Q 1294 -91 989 -36 
Q 684 19 347 128 
L 347 722 
Q 666 556 975 473 
Q 1284 391 1588 391 
Q 1994 391 2212 530 
Q 2431 669 2431 922 
Q 2431 1156 2273 1281 
Q 2116 1406 1581 1522 
L 1381 1569 
Q 847 1681 609 1914 
Q 372 2147 372 2553 
Q 372 3047 722 3315 
Q 1072 3584 1716 3584 
Q 2034 3584 2315 3537 
Q 2597 3491 2834 3397 
z
" transform="scale(0.015625)"/>
      <path id="DejaVuSans-75" d="M 544 1381 
L 544 3500 
L 1119 3500 
L 1119 1403 
Q 1119 906 1312 657 
Q 1506 409 1894 409 
Q 2359 409 2629 706 
Q 2900 1003 2900 1516 
L 2900 3500 
L 3475 3500 
L 3475 0 
L 2900 0 
L 2900 538 
Q 2691 219 2414 64 
Q 2138 -91 1772 -91 
Q 1169 -91 856 284 
Q 544 659 544 1381 
z
M 1991 3584 
L 1991 3584 
z
" transform="scale(0.015625)"/>
      <path id="DejaVuSans-72" d="M 2631 2963 
Q 2534 3019 2420 3045 
Q 2306 3072 2169 3072 
Q 1681 3072 1420 2755 
Q 1159 2438 1159 1844 
L 1159 0 
L 581 0 
L 581 3500 
L 1159 3500 
L 1159 2956 
Q 1341 3275 1631 3429 
Q 1922 3584 2338 3584 
Q 2397 3584 2469 3576 
Q 2541 3569 2628 3553 
L 2631 2963 
z
" transform="scale(0.015625)"/>
      <path id="DejaVuSans-6d" d="M 3328 2828 
Q 3544 3216 3844 3400 
Q 4144 3584 4550 3584 
Q 5097 3584 5394 3201 
Q 5691 2819 5691 2113 
L 5691 0 
L 5113 0 
L 5113 2094 
Q 5113 2597 4934 2840 
Q 4756 3084 4391 3084 
Q 3944 3084 3684 2787 
Q 3425 2491 3425 1978 
L 3425 0 
L 2847 0 
L 2847 2094 
Q 2847 2600 2669 2842 
Q 2491 3084 2119 3084 
Q 1678 3084 1418 2786 
Q 1159 2488 1159 1978 
L 1159 0 
L 581 0 
L 581 3500 
L 1159 3500 
L 1159 2956 
Q 1356 3278 1631 3431 
Q 1906 3584 2284 3584 
Q 2666 3584 2933 3390 
Q 3200 3197 3328 2828 
z
" transform="scale(0.015625)"/>
      <path id="DejaVuSans-20" transform="scale(0.015625)"/>
      <path id="DejaVuSans-42" d="M 1259 2228 
L 1259 519 
L 2272 519 
Q 2781 519 3026 730 
Q 3272 941 3272 1375 
Q 3272 1813 3026 2020 
Q 2781 2228 2272 2228 
L 1259 2228 
z
M 1259 4147 
L 1259 2741 
L 2194 2741 
Q 2656 2741 2882 2914 
Q 3109 3088 3109 3444 
Q 3109 3797 2882 3972 
Q 2656 4147 2194 4147 
L 1259 4147 
z
M 628 4666 
L 2241 4666 
Q 2963 4666 3353 4366 
Q 3744 4066 3744 3513 
Q 3744 3084 3544 2831 
Q 3344 2578 2956 2516 
Q 3422 2416 3680 2098 
Q 3938 1781 3938 1306 
Q 3938 681 3513 340 
Q 3088 0 2303 0 
L 628 0 
L 628 4666 
z
" transform="scale(0.015625)"/>
      <path id="DejaVuSans-28" d="M 1984 4856 
Q 1566 4138 1362 3434 
Q 1159 2731 1159 2009 
Q 1159 1288 1364 580 
Q 1569 -128 1984 -844 
L 1484 -844 
Q 1016 -109 783 600 
Q 550 1309 550 2009 
Q 550 2706 781 3412 
Q 1013 4119 1484 4856 
L 1984 4856 
z
" transform="scale(0.015625)"/>
      <path id="DejaVuSans-5a" d="M 359 4666 
L 4025 4666 
L 4025 4184 
L 1075 531 
L 4097 531 
L 4097 0 
L 288 0 
L 288 481 
L 3238 4134 
L 359 4134 
L 359 4666 
z
" transform="scale(0.015625)"/>
      <path id="DejaVuSans-58" d="M 403 4666 
L 1081 4666 
L 2241 2931 
L 3406 4666 
L 4084 4666 
L 2584 2425 
L 4184 0 
L 3506 0 
L 2194 1984 
L 872 0 
L 191 0 
L 1856 2491 
L 403 4666 
z
" transform="scale(0.015625)"/>
      <path id="DejaVuSans-29" d="M 513 4856 
L 1013 4856 
Q 1481 4119 1714 3412 
Q 1947 2706 1947 2009 
Q 1947 1309 1714 600 
Q 1481 -109 1013 -844 
L 513 -844 
Q 928 -128 1133 580 
Q 1338 1288 1338 2009 
Q 1338 2731 1133 3434 
Q 928 4138 513 4856 
z
" transform="scale(0.015625)"/>
     </defs>
     <use xlink:href="#DejaVuSans-4d"/>
     <use xlink:href="#DejaVuSans-65" x="86.279297"/>
     <use xlink:href="#DejaVuSans-61" x="147.802734"/>
     <use xlink:href="#DejaVuSans-73" x="209.082031"/>
     <use xlink:href="#DejaVuSans-75" x="261.181641"/>
     <use xlink:href="#DejaVuSans-72" x="324.560547"/>
     <use xlink:href="#DejaVuSans-65" x="363.423828"/>
     <use xlink:href="#DejaVuSans-6d" x="424.947266"/>
     <use xlink:href="#DejaVuSans-65" x="522.359375"/>
     <use xlink:href="#DejaVuSans-6e" x="583.882812"/>
     <use xlink:href="#DejaVuSans-74" x="647.261719"/>
     <use xlink:href="#DejaVuSans-20" x="686.470703"/>
     <use xlink:href="#DejaVuSans-42" x="718.257812"/>
     <use xlink:href="#DejaVuSans-61" x="786.861328"/>
     <use xlink:href="#DejaVuSans-73" x="848.140625"/>
     <use xlink:href="#DejaVuSans-69" x="900.240234"/>
     <use xlink:href="#DejaVuSans-73" x="928.023438"/>
     <use xlink:href="#DejaVuSans-20" x="980.123047"/>
     <use xlink:href="#DejaVuSans-28" x="1011.910156"/>
     <use xlink:href="#DejaVuSans-5a" x="1050.923828"/>
     <use xlink:href="#DejaVuSans-58" x="1119.429688"/>
     <use xlink:href="#DejaVuSans-29" x="1187.935547"/>
    </g>
   </g>
  </g>
  <g id="legend_1">
   <g id="patch_135">
    <path d="M 544.305 25.7575 
L 576.305 25.7575 
L 576.305 14.5575 
L 544.305 14.5575 
z
" style="fill: #1f77b4"/>
   </g>
   <g id="text_16">
    <!-- Circuit cutting -->
    <g transform="translate(589.105 25.7575)scale(0.16 -0.16)">
     <defs>
      <path id="DejaVuSans-43" d="M 4122 4306 
L 4122 3641 
Q 3803 3938 3442 4084 
Q 3081 4231 2675 4231 
Q 1875 4231 1450 3742 
Q 1025 3253 1025 2328 
Q 1025 1406 1450 917 
Q 1875 428 2675 428 
Q 3081 428 3442 575 
Q 3803 722 4122 1019 
L 4122 359 
Q 3791 134 3420 21 
Q 3050 -91 2638 -91 
Q 1578 -91 968 557 
Q 359 1206 359 2328 
Q 359 3453 968 4101 
Q 1578 4750 2638 4750 
Q 3056 4750 3426 4639 
Q 3797 4528 4122 4306 
z
" transform="scale(0.015625)"/>
      <path id="DejaVuSans-67" d="M 2906 1791 
Q 2906 2416 2648 2759 
Q 2391 3103 1925 3103 
Q 1463 3103 1205 2759 
Q 947 2416 947 1791 
Q 947 1169 1205 825 
Q 1463 481 1925 481 
Q 2391 481 2648 825 
Q 2906 1169 2906 1791 
z
M 3481 434 
Q 3481 -459 3084 -895 
Q 2688 -1331 1869 -1331 
Q 1566 -1331 1297 -1286 
Q 1028 -1241 775 -1147 
L 775 -588 
Q 1028 -725 1275 -790 
Q 1522 -856 1778 -856 
Q 2344 -856 2625 -561 
Q 2906 -266 2906 331 
L 2906 616 
Q 2728 306 2450 153 
Q 2172 0 1784 0 
Q 1141 0 747 490 
Q 353 981 353 1791 
Q 353 2603 747 3093 
Q 1141 3584 1784 3584 
Q 2172 3584 2450 3431 
Q 2728 3278 2906 2969 
L 2906 3500 
L 3481 3500 
L 3481 434 
z
" transform="scale(0.015625)"/>
     </defs>
     <use xlink:href="#DejaVuSans-43"/>
     <use xlink:href="#DejaVuSans-69" x="69.824219"/>
     <use xlink:href="#DejaVuSans-72" x="97.607422"/>
     <use xlink:href="#DejaVuSans-63" x="136.470703"/>
     <use xlink:href="#DejaVuSans-75" x="191.451172"/>
     <use xlink:href="#DejaVuSans-69" x="254.830078"/>
     <use xlink:href="#DejaVuSans-74" x="282.613281"/>
     <use xlink:href="#DejaVuSans-20" x="321.822266"/>
     <use xlink:href="#DejaVuSans-63" x="353.609375"/>
     <use xlink:href="#DejaVuSans-75" x="408.589844"/>
     <use xlink:href="#DejaVuSans-74" x="471.96875"/>
     <use xlink:href="#DejaVuSans-74" x="511.177734"/>
     <use xlink:href="#DejaVuSans-69" x="550.386719"/>
     <use xlink:href="#DejaVuSans-6e" x="578.169922"/>
     <use xlink:href="#DejaVuSans-67" x="641.548828"/>
    </g>
   </g>
   <g id="patch_136">
    <path d="M 544.305 49.2425 
L 576.305 49.2425 
L 576.305 38.0425 
L 544.305 38.0425 
z
" style="fill: #ff7f0e"/>
   </g>
   <g id="text_17">
    <!-- 12-qubit -->
    <g transform="translate(589.105 49.2425)scale(0.16 -0.16)">
     <defs>
      <path id="DejaVuSans-2d" d="M 313 2009 
L 1997 2009 
L 1997 1497 
L 313 1497 
L 313 2009 
z
" transform="scale(0.015625)"/>
      <path id="DejaVuSans-71" d="M 947 1747 
Q 947 1113 1208 752 
Q 1469 391 1925 391 
Q 2381 391 2643 752 
Q 2906 1113 2906 1747 
Q 2906 2381 2643 2742 
Q 2381 3103 1925 3103 
Q 1469 3103 1208 2742 
Q 947 2381 947 1747 
z
M 2906 525 
Q 2725 213 2448 61 
Q 2172 -91 1784 -91 
Q 1150 -91 751 415 
Q 353 922 353 1747 
Q 353 2572 751 3078 
Q 1150 3584 1784 3584 
Q 2172 3584 2448 3432 
Q 2725 3281 2906 2969 
L 2906 3500 
L 3481 3500 
L 3481 -1331 
L 2906 -1331 
L 2906 525 
z
" transform="scale(0.015625)"/>
      <path id="DejaVuSans-62" d="M 3116 1747 
Q 3116 2381 2855 2742 
Q 2594 3103 2138 3103 
Q 1681 3103 1420 2742 
Q 1159 2381 1159 1747 
Q 1159 1113 1420 752 
Q 1681 391 2138 391 
Q 2594 391 2855 752 
Q 3116 1113 3116 1747 
z
M 1159 2969 
Q 1341 3281 1617 3432 
Q 1894 3584 2278 3584 
Q 2916 3584 3314 3078 
Q 3713 2572 3713 1747 
Q 3713 922 3314 415 
Q 2916 -91 2278 -91 
Q 1894 -91 1617 61 
Q 1341 213 1159 525 
L 1159 0 
L 581 0 
L 581 4863 
L 1159 4863 
L 1159 2969 
z
" transform="scale(0.015625)"/>
     </defs>
     <use xlink:href="#DejaVuSans-31"/>
     <use xlink:href="#DejaVuSans-32" x="63.623047"/>
     <use xlink:href="#DejaVuSans-2d" x="127.246094"/>
     <use xlink:href="#DejaVuSans-71" x="163.330078"/>
     <use xlink:href="#DejaVuSans-75" x="226.806641"/>
     <use xlink:href="#DejaVuSans-62" x="290.185547"/>
     <use xlink:href="#DejaVuSans-69" x="353.662109"/>
     <use xlink:href="#DejaVuSans-74" x="381.445312"/>
    </g>
   </g>
  </g>
 </g>
 <defs>
  <clipPath id="pada27038e5">
   <rect x="59.13" y="56.8" width="646.375" height="225.8"/>
  </clipPath>
 </defs>
</svg>
