<?xml version="1.0" encoding="utf-8" standalone="no"?>
<!DOCTYPE svg PUBLIC "-//W3C//DTD SVG 1.1//EN"
  "http://www.w3.org/Graphics/SVG/1.1/DTD/svg11.dtd">
<svg xmlns:xlink="http://www.w3.org/1999/xlink" width="576pt" height="288pt" viewBox="0 0 576 288" xmlns="http://www.w3.org/2000/svg" version="1.1">
 <metadata>
  <rdf:RDF xmlns:dc="http://purl.org/dc/elements/1.1/" xmlns:cc="http://creativecommons.org/ns#" xmlns:rdf="http://www.w3.org/1999/02/22-rdf-syntax-ns#">
   <cc:Work>
    <dc:type rdf:resource="http://purl.org/dc/dcmitype/StillImage"/>
    <dc:date>2022-02-14T11:00:00.525187</dc:date>
    <dc:format>image/svg+xml</dc:format>
    <dc:creator>
     <cc:Agent>
      <dc:title>Matplotlib v3.5.1, https://matplotlib.org/</dc:title>
     </cc:Agent>
    </dc:creator>
   </cc:Work>
  </rdf:RDF>
 </metadata>
 <defs>
  <style type="text/css">*{stroke-linejoin: round; stroke-linecap: butt}</style>
 </defs>
 <g id="figure_1">
  <g id="patch_1">
   <path d="M 0 288 
L 576 288 
L 576 0 
L 0 0 
z
" style="fill: #ffffff"/>
  </g>
  <g id="axes_1">
   <g id="patch_2">
    <path d="M 62.825 239.659619 
L 307.942034 239.659619 
L 307.942034 28.8 
L 62.825 28.8 
z
" style="fill: #ffffff"/>
   </g>
   <g id="patch_3">
    <path d="M 73.966683 318.731976 
L 94.224289 318.731976 
L 94.224289 55.157452 
L 73.966683 55.157452 
z
" clip-path="url(#pb4c0f362de)" style="fill: #1f77b4"/>
   </g>
   <g id="patch_4">
    <path d="M 107.72936 318.731976 
L 127.986966 318.731976 
L 127.986966 181.980276 
L 107.72936 181.980276 
z
" clip-path="url(#pb4c0f362de)" style="fill: #1f77b4"/>
   </g>
   <g id="patch_5">
    <path d="M 141.492037 318.731976 
L 161.749643 318.731976 
L 161.749643 181.980276 
L 141.492037 181.980276 
z
" clip-path="url(#pb4c0f362de)" style="fill: #1f77b4"/>
   </g>
   <g id="patch_6">
    <path d="M 175.254714 318.731976 
L 195.51232 318.731976 
L 195.51232 55.157452 
L 175.254714 55.157452 
z
" clip-path="url(#pb4c0f362de)" style="fill: #1f77b4"/>
   </g>
   <g id="patch_7">
    <path d="M 209.017391 318.731976 
L 229.274997 318.731976 
L 229.274997 79.456276 
L 209.017391 79.456276 
z
" clip-path="url(#pb4c0f362de)" style="fill: #1f77b4"/>
   </g>
   <g id="patch_8">
    <path d="M 242.780068 318.731976 
L 263.037674 318.731976 
L 263.037674 58.244699 
L 242.780068 58.244699 
z
" clip-path="url(#pb4c0f362de)" style="fill: #1f77b4"/>
   </g>
   <g id="patch_9">
    <path d="M 276.542744 318.731976 
L 296.800351 318.731976 
L 296.800351 76.371004 
L 276.542744 76.371004 
z
" clip-path="url(#pb4c0f362de)" style="fill: #1f77b4"/>
   </g>
   <g id="matplotlib.axis_1">
    <g id="xtick_1">
     <g id="line2d_1">
      <defs>
       <path id="m874e263f75" d="M 0 0 
L 0 3.5 
" style="stroke: #000000; stroke-width: 0.8"/>
      </defs>
      <g>
       <use xlink:href="#m874e263f75" x="84.095486" y="239.659619" style="stroke: #000000; stroke-width: 0.8"/>
      </g>
     </g>
     <g id="text_1">
      <!-- XZII -->
      <g transform="translate(70.817144 273.815539)rotate(-30)scale(0.16 -0.16)">
       <defs>
        <path id="Consolas-58" d="M 3444 0 
L 2741 0 
L 1747 1650 
L 750 0 
L 56 0 
L 1416 2088 
L 166 4084 
L 825 4084 
L 1759 2547 
L 2700 4084 
L 3341 4084 
L 2088 2113 
L 3444 0 
z
" transform="scale(0.015625)"/>
        <path id="Consolas-5a" d="M 3128 3647 
L 1044 519 
L 3169 519 
L 3169 0 
L 347 0 
L 347 416 
L 2444 3578 
L 403 3578 
L 403 4084 
L 3128 4084 
L 3128 3647 
z
" transform="scale(0.015625)"/>
        <path id="Consolas-49" d="M 1478 3616 
L 538 3616 
L 538 4084 
L 2981 4084 
L 2981 3616 
L 2041 3616 
L 2041 475 
L 2981 475 
L 2981 0 
L 538 0 
L 538 475 
L 1478 475 
L 1478 3616 
z
" transform="scale(0.015625)"/>
       </defs>
       <use xlink:href="#Consolas-58"/>
       <use xlink:href="#Consolas-5a" x="54.980469"/>
       <use xlink:href="#Consolas-49" x="109.960938"/>
       <use xlink:href="#Consolas-49" x="164.941406"/>
      </g>
     </g>
    </g>
    <g id="xtick_2">
     <g id="line2d_2">
      <g>
       <use xlink:href="#m874e263f75" x="117.858163" y="239.659619" style="stroke: #000000; stroke-width: 0.8"/>
      </g>
     </g>
     <g id="text_2">
      <!-- XIXZ -->
      <g transform="translate(104.579821 273.815539)rotate(-30)scale(0.16 -0.16)">
       <use xlink:href="#Consolas-58"/>
       <use xlink:href="#Consolas-49" x="54.980469"/>
       <use xlink:href="#Consolas-58" x="109.960938"/>
       <use xlink:href="#Consolas-5a" x="164.941406"/>
      </g>
     </g>
    </g>
    <g id="xtick_3">
     <g id="line2d_3">
      <g>
       <use xlink:href="#m874e263f75" x="151.62084" y="239.659619" style="stroke: #000000; stroke-width: 0.8"/>
      </g>
     </g>
     <g id="text_3">
      <!-- IZXZ -->
      <g transform="translate(138.342498 273.815539)rotate(-30)scale(0.16 -0.16)">
       <use xlink:href="#Consolas-49"/>
       <use xlink:href="#Consolas-5a" x="54.980469"/>
       <use xlink:href="#Consolas-58" x="109.960938"/>
       <use xlink:href="#Consolas-5a" x="164.941406"/>
      </g>
     </g>
    </g>
    <g id="xtick_4">
     <g id="line2d_4">
      <g>
       <use xlink:href="#m874e263f75" x="185.383517" y="239.659619" style="stroke: #000000; stroke-width: 0.8"/>
      </g>
     </g>
     <g id="text_4">
      <!-- IIII -->
      <g transform="translate(172.105175 273.815539)rotate(-30)scale(0.16 -0.16)">
       <use xlink:href="#Consolas-49"/>
       <use xlink:href="#Consolas-49" x="54.980469"/>
       <use xlink:href="#Consolas-49" x="109.960938"/>
       <use xlink:href="#Consolas-49" x="164.941406"/>
      </g>
     </g>
    </g>
    <g id="xtick_5">
     <g id="line2d_5">
      <g>
       <use xlink:href="#m874e263f75" x="219.146194" y="239.659619" style="stroke: #000000; stroke-width: 0.8"/>
      </g>
     </g>
     <g id="text_5">
      <!-- ZXIX -->
      <g transform="translate(205.867852 273.815539)rotate(-30)scale(0.16 -0.16)">
       <use xlink:href="#Consolas-5a"/>
       <use xlink:href="#Consolas-58" x="54.980469"/>
       <use xlink:href="#Consolas-49" x="109.960938"/>
       <use xlink:href="#Consolas-58" x="164.941406"/>
      </g>
     </g>
    </g>
    <g id="xtick_6">
     <g id="line2d_6">
      <g>
       <use xlink:href="#m874e263f75" x="252.908871" y="239.659619" style="stroke: #000000; stroke-width: 0.8"/>
      </g>
     </g>
     <g id="text_6">
      <!-- ZXZI -->
      <g transform="translate(239.630529 273.815539)rotate(-30)scale(0.16 -0.16)">
       <use xlink:href="#Consolas-5a"/>
       <use xlink:href="#Consolas-58" x="54.980469"/>
       <use xlink:href="#Consolas-5a" x="109.960938"/>
       <use xlink:href="#Consolas-49" x="164.941406"/>
      </g>
     </g>
    </g>
    <g id="xtick_7">
     <g id="line2d_7">
      <g>
       <use xlink:href="#m874e263f75" x="286.671548" y="239.659619" style="stroke: #000000; stroke-width: 0.8"/>
      </g>
     </g>
     <g id="text_7">
      <!-- IIZX -->
      <g transform="translate(273.393206 273.815539)rotate(-30)scale(0.16 -0.16)">
       <use xlink:href="#Consolas-49"/>
       <use xlink:href="#Consolas-49" x="54.980469"/>
       <use xlink:href="#Consolas-5a" x="109.960938"/>
       <use xlink:href="#Consolas-58" x="164.941406"/>
      </g>
     </g>
    </g>
   </g>
   <g id="matplotlib.axis_2">
    <g id="ytick_1">
     <g id="line2d_8">
      <defs>
       <path id="m6e83a9b28d" d="M 0 0 
L -3.5 0 
" style="stroke: #000000; stroke-width: 0.8"/>
      </defs>
      <g>
       <use xlink:href="#m6e83a9b28d" x="62.825" y="213.302167" style="stroke: #000000; stroke-width: 0.8"/>
      </g>
     </g>
     <g id="text_8">
      <!-- 0.4 -->
      <g transform="translate(30.38 219.380917)scale(0.16 -0.16)">
       <defs>
        <path id="DejaVuSans-30" d="M 2034 4250 
Q 1547 4250 1301 3770 
Q 1056 3291 1056 2328 
Q 1056 1369 1301 889 
Q 1547 409 2034 409 
Q 2525 409 2770 889 
Q 3016 1369 3016 2328 
Q 3016 3291 2770 3770 
Q 2525 4250 2034 4250 
z
M 2034 4750 
Q 2819 4750 3233 4129 
Q 3647 3509 3647 2328 
Q 3647 1150 3233 529 
Q 2819 -91 2034 -91 
Q 1250 -91 836 529 
Q 422 1150 422 2328 
Q 422 3509 836 4129 
Q 1250 4750 2034 4750 
z
" transform="scale(0.015625)"/>
        <path id="DejaVuSans-2e" d="M 684 794 
L 1344 794 
L 1344 0 
L 684 0 
L 684 794 
z
" transform="scale(0.015625)"/>
        <path id="DejaVuSans-34" d="M 2419 4116 
L 825 1625 
L 2419 1625 
L 2419 4116 
z
M 2253 4666 
L 3047 4666 
L 3047 1625 
L 3713 1625 
L 3713 1100 
L 3047 1100 
L 3047 0 
L 2419 0 
L 2419 1100 
L 313 1100 
L 313 1709 
L 2253 4666 
z
" transform="scale(0.015625)"/>
       </defs>
       <use xlink:href="#DejaVuSans-30"/>
       <use xlink:href="#DejaVuSans-2e" x="63.623047"/>
       <use xlink:href="#DejaVuSans-34" x="95.410156"/>
      </g>
     </g>
    </g>
    <g id="ytick_2">
     <g id="line2d_9">
      <g>
       <use xlink:href="#m6e83a9b28d" x="62.825" y="160.587262" style="stroke: #000000; stroke-width: 0.8"/>
      </g>
     </g>
     <g id="text_9">
      <!-- 0.6 -->
      <g transform="translate(30.38 166.666012)scale(0.16 -0.16)">
       <defs>
        <path id="DejaVuSans-36" d="M 2113 2584 
Q 1688 2584 1439 2293 
Q 1191 2003 1191 1497 
Q 1191 994 1439 701 
Q 1688 409 2113 409 
Q 2538 409 2786 701 
Q 3034 994 3034 1497 
Q 3034 2003 2786 2293 
Q 2538 2584 2113 2584 
z
M 3366 4563 
L 3366 3988 
Q 3128 4100 2886 4159 
Q 2644 4219 2406 4219 
Q 1781 4219 1451 3797 
Q 1122 3375 1075 2522 
Q 1259 2794 1537 2939 
Q 1816 3084 2150 3084 
Q 2853 3084 3261 2657 
Q 3669 2231 3669 1497 
Q 3669 778 3244 343 
Q 2819 -91 2113 -91 
Q 1303 -91 875 529 
Q 447 1150 447 2328 
Q 447 3434 972 4092 
Q 1497 4750 2381 4750 
Q 2619 4750 2861 4703 
Q 3103 4656 3366 4563 
z
" transform="scale(0.015625)"/>
       </defs>
       <use xlink:href="#DejaVuSans-30"/>
       <use xlink:href="#DejaVuSans-2e" x="63.623047"/>
       <use xlink:href="#DejaVuSans-36" x="95.410156"/>
      </g>
     </g>
    </g>
    <g id="ytick_3">
     <g id="line2d_10">
      <g>
       <use xlink:href="#m6e83a9b28d" x="62.825" y="107.872357" style="stroke: #000000; stroke-width: 0.8"/>
      </g>
     </g>
     <g id="text_10">
      <!-- 0.8 -->
      <g transform="translate(30.38 113.951107)scale(0.16 -0.16)">
       <defs>
        <path id="DejaVuSans-38" d="M 2034 2216 
Q 1584 2216 1326 1975 
Q 1069 1734 1069 1313 
Q 1069 891 1326 650 
Q 1584 409 2034 409 
Q 2484 409 2743 651 
Q 3003 894 3003 1313 
Q 3003 1734 2745 1975 
Q 2488 2216 2034 2216 
z
M 1403 2484 
Q 997 2584 770 2862 
Q 544 3141 544 3541 
Q 544 4100 942 4425 
Q 1341 4750 2034 4750 
Q 2731 4750 3128 4425 
Q 3525 4100 3525 3541 
Q 3525 3141 3298 2862 
Q 3072 2584 2669 2484 
Q 3125 2378 3379 2068 
Q 3634 1759 3634 1313 
Q 3634 634 3220 271 
Q 2806 -91 2034 -91 
Q 1263 -91 848 271 
Q 434 634 434 1313 
Q 434 1759 690 2068 
Q 947 2378 1403 2484 
z
M 1172 3481 
Q 1172 3119 1398 2916 
Q 1625 2713 2034 2713 
Q 2441 2713 2670 2916 
Q 2900 3119 2900 3481 
Q 2900 3844 2670 4047 
Q 2441 4250 2034 4250 
Q 1625 4250 1398 4047 
Q 1172 3844 1172 3481 
z
" transform="scale(0.015625)"/>
       </defs>
       <use xlink:href="#DejaVuSans-30"/>
       <use xlink:href="#DejaVuSans-2e" x="63.623047"/>
       <use xlink:href="#DejaVuSans-38" x="95.410156"/>
      </g>
     </g>
    </g>
    <g id="ytick_4">
     <g id="line2d_11">
      <g>
       <use xlink:href="#m6e83a9b28d" x="62.825" y="55.157452" style="stroke: #000000; stroke-width: 0.8"/>
      </g>
     </g>
     <g id="text_11">
      <!-- 1.0 -->
      <g transform="translate(30.38 61.236202)scale(0.16 -0.16)">
       <defs>
        <path id="DejaVuSans-31" d="M 794 531 
L 1825 531 
L 1825 4091 
L 703 3866 
L 703 4441 
L 1819 4666 
L 2450 4666 
L 2450 531 
L 3481 531 
L 3481 0 
L 794 0 
L 794 531 
z
" transform="scale(0.015625)"/>
       </defs>
       <use xlink:href="#DejaVuSans-31"/>
       <use xlink:href="#DejaVuSans-2e" x="63.623047"/>
       <use xlink:href="#DejaVuSans-30" x="95.410156"/>
      </g>
     </g>
    </g>
    <g id="text_12">
     <!-- Expectation -->
     <g transform="translate(23.0525 181.782309)rotate(-90)scale(0.16 -0.16)">
      <defs>
       <path id="DejaVuSans-45" d="M 628 4666 
L 3578 4666 
L 3578 4134 
L 1259 4134 
L 1259 2753 
L 3481 2753 
L 3481 2222 
L 1259 2222 
L 1259 531 
L 3634 531 
L 3634 0 
L 628 0 
L 628 4666 
z
" transform="scale(0.015625)"/>
       <path id="DejaVuSans-78" d="M 3513 3500 
L 2247 1797 
L 3578 0 
L 2900 0 
L 1881 1375 
L 863 0 
L 184 0 
L 1544 1831 
L 300 3500 
L 978 3500 
L 1906 2253 
L 2834 3500 
L 3513 3500 
z
" transform="scale(0.015625)"/>
       <path id="DejaVuSans-70" d="M 1159 525 
L 1159 -1331 
L 581 -1331 
L 581 3500 
L 1159 3500 
L 1159 2969 
Q 1341 3281 1617 3432 
Q 1894 3584 2278 3584 
Q 2916 3584 3314 3078 
Q 3713 2572 3713 1747 
Q 3713 922 3314 415 
Q 2916 -91 2278 -91 
Q 1894 -91 1617 61 
Q 1341 213 1159 525 
z
M 3116 1747 
Q 3116 2381 2855 2742 
Q 2594 3103 2138 3103 
Q 1681 3103 1420 2742 
Q 1159 2381 1159 1747 
Q 1159 1113 1420 752 
Q 1681 391 2138 391 
Q 2594 391 2855 752 
Q 3116 1113 3116 1747 
z
" transform="scale(0.015625)"/>
       <path id="DejaVuSans-65" d="M 3597 1894 
L 3597 1613 
L 953 1613 
Q 991 1019 1311 708 
Q 1631 397 2203 397 
Q 2534 397 2845 478 
Q 3156 559 3463 722 
L 3463 178 
Q 3153 47 2828 -22 
Q 2503 -91 2169 -91 
Q 1331 -91 842 396 
Q 353 884 353 1716 
Q 353 2575 817 3079 
Q 1281 3584 2069 3584 
Q 2775 3584 3186 3129 
Q 3597 2675 3597 1894 
z
M 3022 2063 
Q 3016 2534 2758 2815 
Q 2500 3097 2075 3097 
Q 1594 3097 1305 2825 
Q 1016 2553 972 2059 
L 3022 2063 
z
" transform="scale(0.015625)"/>
       <path id="DejaVuSans-63" d="M 3122 3366 
L 3122 2828 
Q 2878 2963 2633 3030 
Q 2388 3097 2138 3097 
Q 1578 3097 1268 2742 
Q 959 2388 959 1747 
Q 959 1106 1268 751 
Q 1578 397 2138 397 
Q 2388 397 2633 464 
Q 2878 531 3122 666 
L 3122 134 
Q 2881 22 2623 -34 
Q 2366 -91 2075 -91 
Q 1284 -91 818 406 
Q 353 903 353 1747 
Q 353 2603 823 3093 
Q 1294 3584 2113 3584 
Q 2378 3584 2631 3529 
Q 2884 3475 3122 3366 
z
" transform="scale(0.015625)"/>
       <path id="DejaVuSans-74" d="M 1172 4494 
L 1172 3500 
L 2356 3500 
L 2356 3053 
L 1172 3053 
L 1172 1153 
Q 1172 725 1289 603 
Q 1406 481 1766 481 
L 2356 481 
L 2356 0 
L 1766 0 
Q 1100 0 847 248 
Q 594 497 594 1153 
L 594 3053 
L 172 3053 
L 172 3500 
L 594 3500 
L 594 4494 
L 1172 4494 
z
" transform="scale(0.015625)"/>
       <path id="DejaVuSans-61" d="M 2194 1759 
Q 1497 1759 1228 1600 
Q 959 1441 959 1056 
Q 959 750 1161 570 
Q 1363 391 1709 391 
Q 2188 391 2477 730 
Q 2766 1069 2766 1631 
L 2766 1759 
L 2194 1759 
z
M 3341 1997 
L 3341 0 
L 2766 0 
L 2766 531 
Q 2569 213 2275 61 
Q 1981 -91 1556 -91 
Q 1019 -91 701 211 
Q 384 513 384 1019 
Q 384 1609 779 1909 
Q 1175 2209 1959 2209 
L 2766 2209 
L 2766 2266 
Q 2766 2663 2505 2880 
Q 2244 3097 1772 3097 
Q 1472 3097 1187 3025 
Q 903 2953 641 2809 
L 641 3341 
Q 956 3463 1253 3523 
Q 1550 3584 1831 3584 
Q 2591 3584 2966 3190 
Q 3341 2797 3341 1997 
z
" transform="scale(0.015625)"/>
       <path id="DejaVuSans-69" d="M 603 3500 
L 1178 3500 
L 1178 0 
L 603 0 
L 603 3500 
z
M 603 4863 
L 1178 4863 
L 1178 4134 
L 603 4134 
L 603 4863 
z
" transform="scale(0.015625)"/>
       <path id="DejaVuSans-6f" d="M 1959 3097 
Q 1497 3097 1228 2736 
Q 959 2375 959 1747 
Q 959 1119 1226 758 
Q 1494 397 1959 397 
Q 2419 397 2687 759 
Q 2956 1122 2956 1747 
Q 2956 2369 2687 2733 
Q 2419 3097 1959 3097 
z
M 1959 3584 
Q 2709 3584 3137 3096 
Q 3566 2609 3566 1747 
Q 3566 888 3137 398 
Q 2709 -91 1959 -91 
Q 1206 -91 779 398 
Q 353 888 353 1747 
Q 353 2609 779 3096 
Q 1206 3584 1959 3584 
z
" transform="scale(0.015625)"/>
       <path id="DejaVuSans-6e" d="M 3513 2113 
L 3513 0 
L 2938 0 
L 2938 2094 
Q 2938 2591 2744 2837 
Q 2550 3084 2163 3084 
Q 1697 3084 1428 2787 
Q 1159 2491 1159 1978 
L 1159 0 
L 581 0 
L 581 3500 
L 1159 3500 
L 1159 2956 
Q 1366 3272 1645 3428 
Q 1925 3584 2291 3584 
Q 2894 3584 3203 3211 
Q 3513 2838 3513 2113 
z
" transform="scale(0.015625)"/>
      </defs>
      <use xlink:href="#DejaVuSans-45"/>
      <use xlink:href="#DejaVuSans-78" x="63.183594"/>
      <use xlink:href="#DejaVuSans-70" x="122.363281"/>
      <use xlink:href="#DejaVuSans-65" x="185.839844"/>
      <use xlink:href="#DejaVuSans-63" x="247.363281"/>
      <use xlink:href="#DejaVuSans-74" x="302.34375"/>
      <use xlink:href="#DejaVuSans-61" x="341.552734"/>
      <use xlink:href="#DejaVuSans-74" x="402.832031"/>
      <use xlink:href="#DejaVuSans-69" x="442.041016"/>
      <use xlink:href="#DejaVuSans-6f" x="469.824219"/>
      <use xlink:href="#DejaVuSans-6e" x="531.005859"/>
     </g>
    </g>
   </g>
   <g id="LineCollection_1">
    <path d="M 84.095486 55.157452 
L 84.095486 55.157452 
" clip-path="url(#pb4c0f362de)" style="fill: none; stroke: #000000; stroke-width: 1.5"/>
    <path d="M 117.858163 185.438309 
L 117.858163 178.522244 
" clip-path="url(#pb4c0f362de)" style="fill: none; stroke: #000000; stroke-width: 1.5"/>
    <path d="M 151.62084 185.438309 
L 151.62084 178.522244 
" clip-path="url(#pb4c0f362de)" style="fill: none; stroke: #000000; stroke-width: 1.5"/>
    <path d="M 185.383517 55.157452 
L 185.383517 55.157452 
" clip-path="url(#pb4c0f362de)" style="fill: none; stroke: #000000; stroke-width: 1.5"/>
    <path d="M 219.146194 84.735273 
L 219.146194 74.17728 
" clip-path="url(#pb4c0f362de)" style="fill: none; stroke: #000000; stroke-width: 1.5"/>
    <path d="M 252.908871 59.956973 
L 252.908871 56.532425 
" clip-path="url(#pb4c0f362de)" style="fill: none; stroke: #000000; stroke-width: 1.5"/>
    <path d="M 286.671548 80.922123 
L 286.671548 71.819885 
" clip-path="url(#pb4c0f362de)" style="fill: none; stroke: #000000; stroke-width: 1.5"/>
   </g>
   <g id="line2d_12">
    <defs>
     <path id="m018b68cd0a" d="M 4 0 
L -4 -0 
" style="stroke: #000000"/>
    </defs>
    <g clip-path="url(#pb4c0f362de)">
     <use xlink:href="#m018b68cd0a" x="84.095486" y="55.157452" style="stroke: #000000"/>
     <use xlink:href="#m018b68cd0a" x="117.858163" y="185.438309" style="stroke: #000000"/>
     <use xlink:href="#m018b68cd0a" x="151.62084" y="185.438309" style="stroke: #000000"/>
     <use xlink:href="#m018b68cd0a" x="185.383517" y="55.157452" style="stroke: #000000"/>
     <use xlink:href="#m018b68cd0a" x="219.146194" y="84.735273" style="stroke: #000000"/>
     <use xlink:href="#m018b68cd0a" x="252.908871" y="59.956973" style="stroke: #000000"/>
     <use xlink:href="#m018b68cd0a" x="286.671548" y="80.922123" style="stroke: #000000"/>
    </g>
   </g>
   <g id="line2d_13">
    <g clip-path="url(#pb4c0f362de)">
     <use xlink:href="#m018b68cd0a" x="84.095486" y="55.157452" style="stroke: #000000"/>
     <use xlink:href="#m018b68cd0a" x="117.858163" y="178.522244" style="stroke: #000000"/>
     <use xlink:href="#m018b68cd0a" x="151.62084" y="178.522244" style="stroke: #000000"/>
     <use xlink:href="#m018b68cd0a" x="185.383517" y="55.157452" style="stroke: #000000"/>
     <use xlink:href="#m018b68cd0a" x="219.146194" y="74.17728" style="stroke: #000000"/>
     <use xlink:href="#m018b68cd0a" x="252.908871" y="56.532425" style="stroke: #000000"/>
     <use xlink:href="#m018b68cd0a" x="286.671548" y="71.819885" style="stroke: #000000"/>
    </g>
   </g>
   <g id="patch_10">
    <path d="M 62.825 239.659619 
L 62.825 28.8 
" style="fill: none; stroke: #000000; stroke-width: 0.8; stroke-linejoin: miter; stroke-linecap: square"/>
   </g>
   <g id="patch_11">
    <path d="M 307.942034 239.659619 
L 307.942034 28.8 
" style="fill: none; stroke: #000000; stroke-width: 0.8; stroke-linejoin: miter; stroke-linecap: square"/>
   </g>
   <g id="patch_12">
    <path d="M 62.825 239.659619 
L 307.942034 239.659619 
" style="fill: none; stroke: #000000; stroke-width: 0.8; stroke-linejoin: miter; stroke-linecap: square"/>
   </g>
   <g id="patch_13">
    <path d="M 62.825 28.8 
L 307.942034 28.8 
" style="fill: none; stroke: #000000; stroke-width: 0.8; stroke-linejoin: miter; stroke-linecap: square"/>
   </g>
   <g id="text_13">
    <!-- 4-qubit linear-cluster state -->
    <g transform="translate(79.259767 22.8)scale(0.16 -0.16)">
     <defs>
      <path id="DejaVuSans-2d" d="M 313 2009 
L 1997 2009 
L 1997 1497 
L 313 1497 
L 313 2009 
z
" transform="scale(0.015625)"/>
      <path id="DejaVuSans-71" d="M 947 1747 
Q 947 1113 1208 752 
Q 1469 391 1925 391 
Q 2381 391 2643 752 
Q 2906 1113 2906 1747 
Q 2906 2381 2643 2742 
Q 2381 3103 1925 3103 
Q 1469 3103 1208 2742 
Q 947 2381 947 1747 
z
M 2906 525 
Q 2725 213 2448 61 
Q 2172 -91 1784 -91 
Q 1150 -91 751 415 
Q 353 922 353 1747 
Q 353 2572 751 3078 
Q 1150 3584 1784 3584 
Q 2172 3584 2448 3432 
Q 2725 3281 2906 2969 
L 2906 3500 
L 3481 3500 
L 3481 -1331 
L 2906 -1331 
L 2906 525 
z
" transform="scale(0.015625)"/>
      <path id="DejaVuSans-75" d="M 544 1381 
L 544 3500 
L 1119 3500 
L 1119 1403 
Q 1119 906 1312 657 
Q 1506 409 1894 409 
Q 2359 409 2629 706 
Q 2900 1003 2900 1516 
L 2900 3500 
L 3475 3500 
L 3475 0 
L 2900 0 
L 2900 538 
Q 2691 219 2414 64 
Q 2138 -91 1772 -91 
Q 1169 -91 856 284 
Q 544 659 544 1381 
z
M 1991 3584 
L 1991 3584 
z
" transform="scale(0.015625)"/>
      <path id="DejaVuSans-62" d="M 3116 1747 
Q 3116 2381 2855 2742 
Q 2594 3103 2138 3103 
Q 1681 3103 1420 2742 
Q 1159 2381 1159 1747 
Q 1159 1113 1420 752 
Q 1681 391 2138 391 
Q 2594 391 2855 752 
Q 3116 1113 3116 1747 
z
M 1159 2969 
Q 1341 3281 1617 3432 
Q 1894 3584 2278 3584 
Q 2916 3584 3314 3078 
Q 3713 2572 3713 1747 
Q 3713 922 3314 415 
Q 2916 -91 2278 -91 
Q 1894 -91 1617 61 
Q 1341 213 1159 525 
L 1159 0 
L 581 0 
L 581 4863 
L 1159 4863 
L 1159 2969 
z
" transform="scale(0.015625)"/>
      <path id="DejaVuSans-20" transform="scale(0.015625)"/>
      <path id="DejaVuSans-6c" d="M 603 4863 
L 1178 4863 
L 1178 0 
L 603 0 
L 603 4863 
z
" transform="scale(0.015625)"/>
      <path id="DejaVuSans-72" d="M 2631 2963 
Q 2534 3019 2420 3045 
Q 2306 3072 2169 3072 
Q 1681 3072 1420 2755 
Q 1159 2438 1159 1844 
L 1159 0 
L 581 0 
L 581 3500 
L 1159 3500 
L 1159 2956 
Q 1341 3275 1631 3429 
Q 1922 3584 2338 3584 
Q 2397 3584 2469 3576 
Q 2541 3569 2628 3553 
L 2631 2963 
z
" transform="scale(0.015625)"/>
      <path id="DejaVuSans-73" d="M 2834 3397 
L 2834 2853 
Q 2591 2978 2328 3040 
Q 2066 3103 1784 3103 
Q 1356 3103 1142 2972 
Q 928 2841 928 2578 
Q 928 2378 1081 2264 
Q 1234 2150 1697 2047 
L 1894 2003 
Q 2506 1872 2764 1633 
Q 3022 1394 3022 966 
Q 3022 478 2636 193 
Q 2250 -91 1575 -91 
Q 1294 -91 989 -36 
Q 684 19 347 128 
L 347 722 
Q 666 556 975 473 
Q 1284 391 1588 391 
Q 1994 391 2212 530 
Q 2431 669 2431 922 
Q 2431 1156 2273 1281 
Q 2116 1406 1581 1522 
L 1381 1569 
Q 847 1681 609 1914 
Q 372 2147 372 2553 
Q 372 3047 722 3315 
Q 1072 3584 1716 3584 
Q 2034 3584 2315 3537 
Q 2597 3491 2834 3397 
z
" transform="scale(0.015625)"/>
     </defs>
     <use xlink:href="#DejaVuSans-34"/>
     <use xlink:href="#DejaVuSans-2d" x="63.623047"/>
     <use xlink:href="#DejaVuSans-71" x="99.707031"/>
     <use xlink:href="#DejaVuSans-75" x="163.183594"/>
     <use xlink:href="#DejaVuSans-62" x="226.5625"/>
     <use xlink:href="#DejaVuSans-69" x="290.039062"/>
     <use xlink:href="#DejaVuSans-74" x="317.822266"/>
     <use xlink:href="#DejaVuSans-20" x="357.03125"/>
     <use xlink:href="#DejaVuSans-6c" x="388.818359"/>
     <use xlink:href="#DejaVuSans-69" x="416.601562"/>
     <use xlink:href="#DejaVuSans-6e" x="444.384766"/>
     <use xlink:href="#DejaVuSans-65" x="507.763672"/>
     <use xlink:href="#DejaVuSans-61" x="569.287109"/>
     <use xlink:href="#DejaVuSans-72" x="630.566406"/>
     <use xlink:href="#DejaVuSans-2d" x="665.304688"/>
     <use xlink:href="#DejaVuSans-63" x="701.388672"/>
     <use xlink:href="#DejaVuSans-6c" x="756.369141"/>
     <use xlink:href="#DejaVuSans-75" x="784.152344"/>
     <use xlink:href="#DejaVuSans-73" x="847.53125"/>
     <use xlink:href="#DejaVuSans-74" x="899.630859"/>
     <use xlink:href="#DejaVuSans-65" x="938.839844"/>
     <use xlink:href="#DejaVuSans-72" x="1000.363281"/>
     <use xlink:href="#DejaVuSans-20" x="1041.476562"/>
     <use xlink:href="#DejaVuSans-73" x="1073.263672"/>
     <use xlink:href="#DejaVuSans-74" x="1125.363281"/>
     <use xlink:href="#DejaVuSans-61" x="1164.572266"/>
     <use xlink:href="#DejaVuSans-74" x="1225.851562"/>
     <use xlink:href="#DejaVuSans-65" x="1265.060547"/>
    </g>
   </g>
  </g>
  <g id="axes_2">
   <g id="patch_14">
    <path d="M 320.082966 239.659619 
L 565.2 239.659619 
L 565.2 28.8 
L 320.082966 28.8 
z
" style="fill: #ffffff"/>
   </g>
   <g id="patch_15">
    <path d="M 331.224649 318.731976 
L 351.482256 318.731976 
L 351.482256 101.588843 
L 331.224649 101.588843 
z
" clip-path="url(#pcac98f61a7)" style="fill: #d62728"/>
   </g>
   <g id="patch_16">
    <path d="M 381.868665 318.731976 
L 402.126271 318.731976 
L 402.126271 65.387352 
L 381.868665 65.387352 
z
" clip-path="url(#pcac98f61a7)" style="fill: #d62728"/>
   </g>
   <g id="patch_17">
    <path d="M 432.51268 318.731976 
L 452.770286 318.731976 
L 452.770286 91.358944 
L 432.51268 91.358944 
z
" clip-path="url(#pcac98f61a7)" style="fill: #d62728"/>
   </g>
   <g id="patch_18">
    <path d="M 483.156695 318.731976 
L 503.414301 318.731976 
L 503.414301 55.157452 
L 483.156695 55.157452 
z
" clip-path="url(#pcac98f61a7)" style="fill: #d62728"/>
   </g>
   <g id="patch_19">
    <path d="M 533.800711 318.731976 
L 554.058317 318.731976 
L 554.058317 56.797538 
L 533.800711 56.797538 
z
" clip-path="url(#pcac98f61a7)" style="fill: #d62728"/>
   </g>
   <g id="matplotlib.axis_3">
    <g id="xtick_8">
     <g id="line2d_14">
      <g>
       <use xlink:href="#m874e263f75" x="341.353452" y="239.659619" style="stroke: #000000; stroke-width: 0.8"/>
      </g>
     </g>
     <g id="text_14">
      <!-- XIX -->
      <g transform="translate(331.88454 269.416789)rotate(-30)scale(0.16 -0.16)">
       <use xlink:href="#Consolas-58"/>
       <use xlink:href="#Consolas-49" x="54.980469"/>
       <use xlink:href="#Consolas-58" x="109.960938"/>
      </g>
     </g>
    </g>
    <g id="xtick_9">
     <g id="line2d_15">
      <g>
       <use xlink:href="#m874e263f75" x="391.997468" y="239.659619" style="stroke: #000000; stroke-width: 0.8"/>
      </g>
     </g>
     <g id="text_15">
      <!-- XZI -->
      <g transform="translate(382.528555 269.416789)rotate(-30)scale(0.16 -0.16)">
       <use xlink:href="#Consolas-58"/>
       <use xlink:href="#Consolas-5a" x="54.980469"/>
       <use xlink:href="#Consolas-49" x="109.960938"/>
      </g>
     </g>
    </g>
    <g id="xtick_10">
     <g id="line2d_16">
      <g>
       <use xlink:href="#m874e263f75" x="442.641483" y="239.659619" style="stroke: #000000; stroke-width: 0.8"/>
      </g>
     </g>
     <g id="text_16">
      <!-- IZX -->
      <g transform="translate(433.17257 269.416789)rotate(-30)scale(0.16 -0.16)">
       <use xlink:href="#Consolas-49"/>
       <use xlink:href="#Consolas-5a" x="54.980469"/>
       <use xlink:href="#Consolas-58" x="109.960938"/>
      </g>
     </g>
    </g>
    <g id="xtick_11">
     <g id="line2d_17">
      <g>
       <use xlink:href="#m874e263f75" x="493.285498" y="239.659619" style="stroke: #000000; stroke-width: 0.8"/>
      </g>
     </g>
     <g id="text_17">
      <!-- III -->
      <g transform="translate(483.816586 269.416789)rotate(-30)scale(0.16 -0.16)">
       <use xlink:href="#Consolas-49"/>
       <use xlink:href="#Consolas-49" x="54.980469"/>
       <use xlink:href="#Consolas-49" x="109.960938"/>
      </g>
     </g>
    </g>
    <g id="xtick_12">
     <g id="line2d_18">
      <g>
       <use xlink:href="#m874e263f75" x="543.929514" y="239.659619" style="stroke: #000000; stroke-width: 0.8"/>
      </g>
     </g>
     <g id="text_18">
      <!-- ZXZ -->
      <g transform="translate(534.460601 269.416789)rotate(-30)scale(0.16 -0.16)">
       <use xlink:href="#Consolas-5a"/>
       <use xlink:href="#Consolas-58" x="54.980469"/>
       <use xlink:href="#Consolas-5a" x="109.960938"/>
      </g>
     </g>
    </g>
   </g>
   <g id="matplotlib.axis_4">
    <g id="ytick_5"/>
    <g id="ytick_6"/>
    <g id="ytick_7"/>
    <g id="ytick_8"/>
    <g id="ytick_9"/>
    <g id="ytick_10"/>
    <g id="ytick_11"/>
    <g id="ytick_12"/>
    <g id="ytick_13"/>
   </g>
   <g id="LineCollection_2">
    <path d="M 341.353452 108.374673 
L 341.353452 94.803014 
" clip-path="url(#pcac98f61a7)" style="fill: none; stroke: #000000; stroke-width: 1.5"/>
    <path d="M 391.997468 67.262832 
L 391.997468 63.511872 
" clip-path="url(#pcac98f61a7)" style="fill: none; stroke: #000000; stroke-width: 1.5"/>
    <path d="M 442.641483 97.782238 
L 442.641483 84.935649 
" clip-path="url(#pcac98f61a7)" style="fill: none; stroke: #000000; stroke-width: 1.5"/>
    <path d="M 493.285498 55.157452 
L 493.285498 55.157452 
" clip-path="url(#pcac98f61a7)" style="fill: none; stroke: #000000; stroke-width: 1.5"/>
    <path d="M 543.929514 59.407613 
L 543.929514 54.187462 
" clip-path="url(#pcac98f61a7)" style="fill: none; stroke: #000000; stroke-width: 1.5"/>
   </g>
   <g id="line2d_19">
    <g clip-path="url(#pcac98f61a7)">
     <use xlink:href="#m018b68cd0a" x="341.353452" y="108.374673" style="stroke: #000000"/>
     <use xlink:href="#m018b68cd0a" x="391.997468" y="67.262832" style="stroke: #000000"/>
     <use xlink:href="#m018b68cd0a" x="442.641483" y="97.782238" style="stroke: #000000"/>
     <use xlink:href="#m018b68cd0a" x="493.285498" y="55.157452" style="stroke: #000000"/>
     <use xlink:href="#m018b68cd0a" x="543.929514" y="59.407613" style="stroke: #000000"/>
    </g>
   </g>
   <g id="line2d_20">
    <g clip-path="url(#pcac98f61a7)">
     <use xlink:href="#m018b68cd0a" x="341.353452" y="94.803014" style="stroke: #000000"/>
     <use xlink:href="#m018b68cd0a" x="391.997468" y="63.511872" style="stroke: #000000"/>
     <use xlink:href="#m018b68cd0a" x="442.641483" y="84.935649" style="stroke: #000000"/>
     <use xlink:href="#m018b68cd0a" x="493.285498" y="55.157452" style="stroke: #000000"/>
     <use xlink:href="#m018b68cd0a" x="543.929514" y="54.187462" style="stroke: #000000"/>
    </g>
   </g>
   <g id="patch_20">
    <path d="M 320.082966 239.659619 
L 320.082966 28.8 
" style="fill: none; stroke: #000000; stroke-width: 0.8; stroke-linejoin: miter; stroke-linecap: square"/>
   </g>
   <g id="patch_21">
    <path d="M 565.2 239.659619 
L 565.2 28.8 
" style="fill: none; stroke: #000000; stroke-width: 0.8; stroke-linejoin: miter; stroke-linecap: square"/>
   </g>
   <g id="patch_22">
    <path d="M 320.082966 239.659619 
L 565.2 239.659619 
" style="fill: none; stroke: #000000; stroke-width: 0.8; stroke-linejoin: miter; stroke-linecap: square"/>
   </g>
   <g id="patch_23">
    <path d="M 320.082966 28.8 
L 565.2 28.8 
" style="fill: none; stroke: #000000; stroke-width: 0.8; stroke-linejoin: miter; stroke-linecap: square"/>
   </g>
   <g id="text_19">
    <!-- 3-qubit linear-cluster state -->
    <g transform="translate(336.517733 22.8)scale(0.16 -0.16)">
     <defs>
      <path id="DejaVuSans-33" d="M 2597 2516 
Q 3050 2419 3304 2112 
Q 3559 1806 3559 1356 
Q 3559 666 3084 287 
Q 2609 -91 1734 -91 
Q 1441 -91 1130 -33 
Q 819 25 488 141 
L 488 750 
Q 750 597 1062 519 
Q 1375 441 1716 441 
Q 2309 441 2620 675 
Q 2931 909 2931 1356 
Q 2931 1769 2642 2001 
Q 2353 2234 1838 2234 
L 1294 2234 
L 1294 2753 
L 1863 2753 
Q 2328 2753 2575 2939 
Q 2822 3125 2822 3475 
Q 2822 3834 2567 4026 
Q 2313 4219 1838 4219 
Q 1578 4219 1281 4162 
Q 984 4106 628 3988 
L 628 4550 
Q 988 4650 1302 4700 
Q 1616 4750 1894 4750 
Q 2613 4750 3031 4423 
Q 3450 4097 3450 3541 
Q 3450 3153 3228 2886 
Q 3006 2619 2597 2516 
z
" transform="scale(0.015625)"/>
     </defs>
     <use xlink:href="#DejaVuSans-33"/>
     <use xlink:href="#DejaVuSans-2d" x="63.623047"/>
     <use xlink:href="#DejaVuSans-71" x="99.707031"/>
     <use xlink:href="#DejaVuSans-75" x="163.183594"/>
     <use xlink:href="#DejaVuSans-62" x="226.5625"/>
     <use xlink:href="#DejaVuSans-69" x="290.039062"/>
     <use xlink:href="#DejaVuSans-74" x="317.822266"/>
     <use xlink:href="#DejaVuSans-20" x="357.03125"/>
     <use xlink:href="#DejaVuSans-6c" x="388.818359"/>
     <use xlink:href="#DejaVuSans-69" x="416.601562"/>
     <use xlink:href="#DejaVuSans-6e" x="444.384766"/>
     <use xlink:href="#DejaVuSans-65" x="507.763672"/>
     <use xlink:href="#DejaVuSans-61" x="569.287109"/>
     <use xlink:href="#DejaVuSans-72" x="630.566406"/>
     <use xlink:href="#DejaVuSans-2d" x="665.304688"/>
     <use xlink:href="#DejaVuSans-63" x="701.388672"/>
     <use xlink:href="#DejaVuSans-6c" x="756.369141"/>
     <use xlink:href="#DejaVuSans-75" x="784.152344"/>
     <use xlink:href="#DejaVuSans-73" x="847.53125"/>
     <use xlink:href="#DejaVuSans-74" x="899.630859"/>
     <use xlink:href="#DejaVuSans-65" x="938.839844"/>
     <use xlink:href="#DejaVuSans-72" x="1000.363281"/>
     <use xlink:href="#DejaVuSans-20" x="1041.476562"/>
     <use xlink:href="#DejaVuSans-73" x="1073.263672"/>
     <use xlink:href="#DejaVuSans-74" x="1125.363281"/>
     <use xlink:href="#DejaVuSans-61" x="1164.572266"/>
     <use xlink:href="#DejaVuSans-74" x="1225.851562"/>
     <use xlink:href="#DejaVuSans-65" x="1265.060547"/>
    </g>
   </g>
  </g>
 </g>
 <defs>
  <clipPath id="pb4c0f362de">
   <rect x="62.825" y="28.8" width="245.117034" height="210.859619"/>
  </clipPath>
  <clipPath id="pcac98f61a7">
   <rect x="320.082966" y="28.8" width="245.117034" height="210.859619"/>
  </clipPath>
 </defs>
</svg>
